# 3ds Max Wavefront OBJ Exporter v0.97b - (c)2007 guruware
# File Created: 28.03.2019 14:04:15

mtllib b4.mtl

#
# object b4
#

v  24.5732 33.3168 23.3131
v  24.5732 33.3168 30.6378
v  24.5732 -0.0000 30.6378
v  24.5732 -0.0000 18.9183
v  24.5732 86.7292 23.3131
v  24.5732 86.7292 18.9183
v  4.7107 51.5758 -10.1320
v  4.7107 69.9283 -10.1320
v  4.7107 69.9283 -23.3131
v  4.7107 51.5758 -23.3131
v  -24.5732 33.3168 -23.3131
v  -24.5732 86.7292 -23.3131
v  -10.6272 86.7292 -23.3131
v  -4.7107 69.9283 -23.3131
v  -4.7107 51.5758 -23.3131
v  -10.6272 51.5758 -23.3131
v  -10.6272 33.3168 -23.3131
v  -32.6027 -0.0000 10.1320
v  -36.8288 -0.0000 10.1320
v  -36.8288 79.9598 10.1320
v  -32.6027 86.7292 10.1320
v  36.8288 20.1371 -18.9183
v  36.8288 79.9598 -18.9183
v  36.8288 79.9598 -10.1320
v  36.8288 0.0000 -10.1320
v  36.8288 0.0000 -23.3131
v  36.8288 11.9088 -23.3131
v  32.6027 86.7292 -10.1320
v  32.6027 86.7292 -18.9183
v  -32.6027 107.6894 -10.1320
v  -32.6027 107.6894 -18.9183
v  -32.6027 86.7292 -18.9183
v  -32.6027 86.7292 -10.1320
v  -32.6027 0.0000 -10.1320
v  -32.6027 86.7292 18.9183
v  -32.6027 107.6894 18.9183
v  -32.6027 107.6894 10.1320
v  -32.6027 125.0771 10.1320
v  -32.6027 125.0771 -10.1320
v  32.6027 20.1371 -18.9183
v  32.6027 11.9088 -23.3131
v  32.6027 107.6894 -18.9183
v  32.6027 107.6894 -10.1320
v  32.6027 125.0771 -10.1320
v  32.6027 125.0771 10.1320
v  32.6027 107.6894 10.1320
v  32.6027 107.6894 18.9183
v  32.6027 86.7292 18.9183
v  32.6027 86.7292 10.1320
v  32.6027 0.0000 -10.1320
v  32.6027 -0.0000 10.1320
v  4.7107 -0.0000 30.6378
v  4.7107 51.5758 30.6378
v  4.7107 51.5758 33.2104
v  4.7107 -0.0000 33.2104
v  32.6027 0.0000 -23.3131
v  -4.7107 -0.0000 30.6378
v  -4.7107 51.5758 30.6378
v  -10.6272 51.5758 30.6378
v  -10.6272 33.3168 30.6378
v  -24.5732 33.3168 30.6378
v  -24.5732 -0.0000 30.6378
v  32.6027 0.0000 -18.9183
v  10.6272 33.3168 -23.3131
v  10.6272 33.3168 -30.6378
v  10.6272 51.5758 -30.6378
v  10.6272 51.5758 -23.3131
v  10.6272 149.4050 -10.1320
v  10.6272 149.4050 10.1320
v  24.5732 149.4050 10.1320
v  24.5732 149.4050 -10.1320
v  24.5732 86.7292 -18.9183
v  10.6272 86.7292 -18.9183
v  10.6272 125.0771 -18.9183
v  24.5732 125.0771 -18.9183
v  24.5732 107.6894 -18.9183
v  24.5732 0.0000 -18.9183
v  -4.7107 51.5758 33.2104
v  -4.7107 -0.0000 33.2104
v  4.7107 0.0000 -30.6378
v  4.7107 51.5758 -30.6378
v  24.5732 33.3168 -30.6378
v  24.5732 0.0000 -30.6378
v  24.5732 33.3168 -23.3131
v  24.5732 125.0771 -10.1320
v  24.5732 125.0771 10.1320
v  10.6272 86.7292 -23.3131
v  10.6272 86.7292 -10.1320
v  24.5732 86.7292 -23.3131
v  10.6272 138.4917 -14.9165
v  10.6272 125.0771 -14.9165
v  10.6272 33.3168 -10.1320
v  10.6272 33.3168 10.1320
v  10.6272 86.7292 10.1320
v  10.6272 86.7292 18.9183
v  10.6272 125.0771 18.9183
v  10.6272 125.0771 14.9165
v  10.6272 138.4917 14.9165
v  -24.5732 149.4050 -10.1320
v  -24.5732 149.4050 10.1320
v  -10.6272 149.4050 10.1320
v  -10.6272 149.4050 -10.1320
v  -24.5732 107.6894 18.9183
v  -24.5732 107.6894 10.1320
v  24.5732 107.6894 -10.1320
v  -24.5732 107.6894 -10.1320
v  -24.5732 107.6894 -18.9183
v  24.5732 125.0771 -14.9165
v  24.5732 138.4917 -14.9165
v  -4.7107 69.9283 -10.1320
v  -4.7107 51.5758 -10.1320
v  -10.6272 33.3168 -30.6378
v  -10.6272 51.5758 -30.6378
v  -4.7107 51.5758 -30.6378
v  -4.7107 0.0000 -30.6378
v  -24.5732 0.0000 -30.6378
v  -24.5732 33.3168 -30.6378
v  -32.6027 20.1371 -18.9183
v  -32.6027 11.9088 -23.3131
v  -36.8288 11.9088 -23.3131
v  -36.8288 20.1371 -18.9183
v  -10.6272 86.7292 -10.1320
v  -10.6272 33.3168 -10.1320
v  -10.6272 125.0771 14.9165
v  -10.6272 125.0771 18.9183
v  -10.6272 86.7292 18.9183
v  -10.6272 86.7292 10.1320
v  -10.6272 33.3168 10.1320
v  -10.6272 86.7292 -18.9183
v  -10.6272 125.0771 -18.9183
v  -10.6272 125.0771 -14.9165
v  -10.6272 138.4917 -14.9165
v  -10.6272 138.4917 14.9165
v  -36.8288 0.0000 -23.3131
v  -32.6027 0.0000 -23.3131
v  -36.8288 79.9598 -18.9183
v  -24.5732 125.0771 -18.9183
v  -24.5732 86.7292 -18.9183
v  -32.6027 0.0000 -18.9183
v  -24.5732 0.0000 -18.9183
v  -36.8288 79.9598 -10.1320
v  -36.8288 0.0000 -10.1320
v  36.8288 79.9598 18.9183
v  36.8288 79.9598 10.1320
v  -24.5732 125.0771 10.1320
v  -24.5732 125.0771 -10.1320
v  -10.6272 86.7292 23.3131
v  -4.7107 69.9283 23.3131
v  -4.7107 69.9283 10.1320
v  -4.7107 51.5758 10.1320
v  -4.7107 51.5758 23.3131
v  -24.5732 125.0771 -14.9165
v  -24.5732 138.4917 -14.9165
v  -24.5732 125.0771 18.9183
v  -24.5732 125.0771 14.9165
v  -24.5732 138.4917 14.9165
v  24.5732 125.0771 14.9165
v  24.5732 125.0771 18.9183
v  24.5732 107.6894 18.9183
v  24.5732 107.6894 10.1320
v  24.5732 138.4917 14.9165
v  4.7107 69.9283 10.1320
v  4.7107 51.5758 10.1320
v  4.7107 51.5758 23.3131
v  4.7107 69.9283 23.3131
v  -4.7107 51.5758 -33.2104
v  4.7107 51.5758 -33.2104
v  4.7107 0.0000 -33.2104
v  -4.7107 0.0000 -33.2104
v  36.8288 -0.0000 10.1320
v  36.8288 -0.0000 23.3131
v  32.6027 -0.0000 23.3131
v  32.6027 -0.0000 18.9183
v  -24.5732 -0.0000 18.9183
v  -32.6027 -0.0000 18.9183
v  -32.6027 -0.0000 23.3131
v  -36.8288 -0.0000 23.3131
v  32.6027 20.1371 18.9183
v  32.6027 11.9088 23.3131
v  36.8288 11.9088 23.3131
v  36.8288 20.1371 18.9183
v  -24.5732 33.3168 23.3131
v  -24.5732 86.7292 23.3131
v  -24.5732 86.7292 18.9183
v  10.6272 33.3168 23.3131
v  10.6272 51.5758 23.3131
v  10.6272 51.5758 30.6378
v  10.6272 33.3168 30.6378
v  10.6272 86.7292 23.3131
v  -36.8288 79.9598 18.9183
v  -32.6027 20.1371 18.9183
v  -36.8288 20.1371 18.9183
v  -36.8288 11.9088 23.3131
v  -32.6027 11.9088 23.3131
v  -10.6272 33.3168 23.3131
v  -10.6272 51.5758 23.3131
# 196 vertices

vn 1.0000 0.0000 -0.0000
vn -1.0000 0.0000 -0.0000
vn 0.0000 0.0000 -1.0000
vn 0.7713 0.6365 0.0000
vn 0.0000 0.7279 -0.6857
vn 0.0000 -0.0000 1.0000
vn 0.0000 1.0000 0.0000
vn 0.0000 -0.0000 -1.0000
vn -0.9066 0.4220 0.0000
vn 0.0000 0.6569 -0.7540
vn 1.0000 -0.0000 0.0000
vn 0.9066 0.4220 0.0000
vn -0.7713 0.6365 0.0000
vn 0.0000 -1.0000 -0.0000
vn 0.0000 0.7279 0.6857
vn 0.0000 0.6569 0.7540
# 16 vertex normals

vt 0.5630 0.4113 0.0000
vt 0.5763 0.4113 0.0000
vt 0.5763 0.3511 0.0000
vt 0.5551 0.3511 0.0000
vt 0.5630 0.5076 0.0000
vt 0.5551 0.5076 0.0000
vt 0.5027 0.4442 0.0000
vt 0.5027 0.4773 0.0000
vt 0.4789 0.4773 0.0000
vt 0.4789 0.4442 0.0000
vt 0.5344 0.4113 0.0000
vt 0.5344 0.5076 0.0000
vt 0.5092 0.5076 0.0000
vt 0.4985 0.4773 0.0000
vt 0.4985 0.4442 0.0000
vt 0.5092 0.4442 0.0000
vt 0.5092 0.4113 0.0000
vt 0.5393 0.3511 0.0000
vt 0.5393 0.4954 0.0000
vt 0.5393 0.5076 0.0000
vt 0.4868 0.3875 0.0000
vt 0.4868 0.4954 0.0000
vt 0.5027 0.4954 0.0000
vt 0.5027 0.3511 0.0000
vt 0.4789 0.3511 0.0000
vt 0.4789 0.3726 0.0000
vt 0.5027 0.5076 0.0000
vt 0.4868 0.5076 0.0000
vt 0.5027 0.5455 0.0000
vt 0.4868 0.5455 0.0000
vt 0.5551 0.5455 0.0000
vt 0.5393 0.5455 0.0000
vt 0.5393 0.5768 0.0000
vt 0.5027 0.5768 0.0000
vt 0.4312 0.3875 0.0000
vt 0.4236 0.3875 0.0000
vt 0.4236 0.3726 0.0000
vt 0.4312 0.3726 0.0000
vt 0.5763 0.4442 0.0000
vt 0.5809 0.4442 0.0000
vt 0.5809 0.3511 0.0000
vt 0.4236 0.3511 0.0000
vt 0.4312 0.3511 0.0000
vt 0.5015 0.3511 0.0000
vt 0.5015 0.4442 0.0000
vt 0.4908 0.4442 0.0000
vt 0.4908 0.4113 0.0000
vt 0.4656 0.4113 0.0000
vt 0.4656 0.3511 0.0000
vt 0.4868 0.3511 0.0000
vt 0.4789 0.4113 0.0000
vt 0.4657 0.4113 0.0000
vt 0.4657 0.4442 0.0000
vt 0.5027 0.6207 0.0000
vt 0.5393 0.6207 0.0000
vt 0.4457 0.5076 0.0000
vt 0.4709 0.5076 0.0000
vt 0.4709 0.5768 0.0000
vt 0.4457 0.5768 0.0000
vt 0.4457 0.5455 0.0000
vt 0.4312 0.5455 0.0000
vt 0.4312 0.5076 0.0000
vt 0.4236 0.4954 0.0000
vt 0.4457 0.3511 0.0000
vt 0.5185 0.4442 0.0000
vt 0.5185 0.3511 0.0000
vt 0.4815 0.3511 0.0000
vt 0.4815 0.4442 0.0000
vt 0.4709 0.4442 0.0000
vt 0.4709 0.4113 0.0000
vt 0.4457 0.4113 0.0000
vt 0.4789 0.5076 0.0000
vt 0.4941 0.6010 0.0000
vt 0.4941 0.5768 0.0000
vt 0.4868 0.5768 0.0000
vt 0.5027 0.4113 0.0000
vt 0.5393 0.4113 0.0000
vt 0.5551 0.5768 0.0000
vt 0.5479 0.5768 0.0000
vt 0.5479 0.6010 0.0000
vt 0.4312 0.5768 0.0000
vt 0.4709 0.6010 0.0000
vt 0.4457 0.6010 0.0000
vt 0.4709 0.6207 0.0000
vt 0.4457 0.6207 0.0000
vt 0.4985 0.3511 0.0000
vt 0.5344 0.3511 0.0000
vt 0.5489 0.3875 0.0000
vt 0.5489 0.3726 0.0000
vt 0.5565 0.3726 0.0000
vt 0.5565 0.3875 0.0000
vt 0.5565 0.3511 0.0000
vt 0.5489 0.3511 0.0000
vt 0.5565 0.4954 0.0000
vt 0.5489 0.5076 0.0000
vt 0.5489 0.5455 0.0000
vt 0.5344 0.5455 0.0000
vt 0.5344 0.5768 0.0000
vt 0.5092 0.5768 0.0000
vt 0.5551 0.4954 0.0000
vt 0.5630 0.4773 0.0000
vt 0.5393 0.4773 0.0000
vt 0.5489 0.5768 0.0000
vt 0.5393 0.4442 0.0000
vt 0.5630 0.4442 0.0000
vt 0.5344 0.6010 0.0000
vt 0.5092 0.6010 0.0000
vt 0.5092 0.6207 0.0000
vt 0.5344 0.6207 0.0000
vt 0.5630 0.3511 0.0000
vt 0.4657 0.3511 0.0000
vt 0.4611 0.3511 0.0000
vt 0.5688 0.3875 0.0000
vt 0.5688 0.3726 0.0000
vt 0.5764 0.3726 0.0000
vt 0.5764 0.3875 0.0000
vt 0.4611 0.4442 0.0000
vt 0.5764 0.3511 0.0000
vt 0.5688 0.3511 0.0000
vt 0.5551 0.3875 0.0000
vt 0.5630 0.3726 0.0000
vt 0.5291 0.4113 0.0000
vt 0.5291 0.4442 0.0000
vt 0.5543 0.3511 0.0000
vt 0.5543 0.4113 0.0000
vt 0.5543 0.5076 0.0000
vt 0.5291 0.5076 0.0000
vt 0.5185 0.4773 0.0000
vt 0.5688 0.5076 0.0000
vt 0.5688 0.5455 0.0000
vt 0.5543 0.5455 0.0000
vt 0.5543 0.5768 0.0000
vt 0.5291 0.5768 0.0000
vt 0.5764 0.4954 0.0000
vt 0.5688 0.5768 0.0000
vt 0.5543 0.6010 0.0000
vt 0.5291 0.6010 0.0000
vt 0.5291 0.6207 0.0000
vt 0.5543 0.6207 0.0000
vt 0.4511 0.3875 0.0000
vt 0.4435 0.3875 0.0000
vt 0.4435 0.3726 0.0000
vt 0.4511 0.3726 0.0000
vt 0.4511 0.3511 0.0000
vt 0.4656 0.5076 0.0000
vt 0.4908 0.5076 0.0000
vt 0.4908 0.5768 0.0000
vt 0.4656 0.5768 0.0000
vt 0.4656 0.5455 0.0000
vt 0.4511 0.5455 0.0000
vt 0.4511 0.5076 0.0000
vt 0.4435 0.4954 0.0000
vt 0.4435 0.3511 0.0000
vt 0.5015 0.4773 0.0000
vt 0.4815 0.4773 0.0000
vt 0.4511 0.5768 0.0000
vt 0.4908 0.6010 0.0000
vt 0.4656 0.6010 0.0000
vt 0.4908 0.6207 0.0000
vt 0.4656 0.6207 0.0000
# 160 texture coords

o b4
g b4
usemtl accent_2
s off
f 1/1/1 2/2/1 3/3/1 
f 1/1/1 3/3/1 4/4/1 
f 5/5/1 1/1/1 4/4/1 
f 6/6/1 5/5/1 4/4/1 
usemtl glass
f 7/7/2 8/8/2 9/9/2 
f 9/9/2 10/10/2 7/7/2 
f 11/11/3 12/12/3 13/13/3 
f 13/13/3 14/14/3 15/15/3 
f 13/13/3 15/15/3 16/16/3 
f 11/11/3 13/13/3 16/16/3 
f 11/11/3 16/16/3 17/17/3 
f 18/18/3 19/18/3 20/19/3 
f 20/19/3 21/20/3 18/18/3 
usemtl accent_2
f 22/21/1 23/22/1 24/23/1 
f 22/21/1 24/23/1 25/24/1 
f 22/21/1 25/24/1 26/25/1 
f 22/21/1 26/25/1 27/26/1 
usemtl main_color_1
f 28/27/4 24/23/4 23/22/4 
f 23/22/4 29/28/4 28/27/4 
usemtl glass
f 30/29/2 31/30/2 32/28/2 
f 30/29/2 32/28/2 33/27/2 
f 33/27/2 34/24/2 18/18/2 
f 33/27/2 18/18/2 21/20/2 
f 21/20/2 35/6/2 36/31/2 
f 21/20/2 36/31/2 37/32/2 
f 33/27/2 21/20/2 37/32/2 
f 30/29/2 33/27/2 37/32/2 
f 30/29/2 37/32/2 38/33/2 
f 30/29/2 38/33/2 39/34/2 
usemtl main_color_1
f 40/35/5 22/36/5 27/37/5 
f 27/37/5 41/38/5 40/35/5 
usemtl glass
f 28/27/1 29/28/1 42/30/1 
f 28/27/1 42/30/1 43/29/1 
f 43/29/1 44/34/1 45/33/1 
f 43/29/1 45/33/1 46/32/1 
f 46/32/1 47/31/1 48/6/1 
f 46/32/1 48/6/1 49/20/1 
f 43/29/1 46/32/1 49/20/1 
f 28/27/1 43/29/1 49/20/1 
f 50/24/1 28/27/1 49/20/1 
f 51/18/1 50/24/1 49/20/1 
usemtl accent_2
f 52/3/1 53/39/1 54/40/1 
f 54/40/1 55/41/1 52/3/1 
usemtl glass
f 26/42/3 56/43/3 41/38/3 
f 41/38/3 27/37/3 26/42/3 
f 57/44/6 58/45/6 59/46/6 
f 57/44/6 59/46/6 60/47/6 
f 57/44/6 60/47/6 61/48/6 
f 57/44/6 61/48/6 62/49/6 
f 56/25/2 63/50/2 40/21/2 
f 40/21/2 41/26/2 56/25/2 
f 50/24/6 25/24/6 24/23/6 
f 24/23/6 28/27/6 50/24/6 
f 64/51/1 65/52/1 66/53/1 
f 66/53/1 67/10/1 64/51/1 
usemtl main_color_1
f 68/54/7 69/55/7 70/55/7 
f 70/55/7 71/54/7 68/54/7 
usemtl glass
f 72/56/3 73/57/3 74/58/3 
f 74/58/3 75/59/3 76/60/3 
f 72/56/3 74/58/3 76/60/3 
f 76/60/3 42/61/3 29/62/3 
f 29/62/3 23/63/3 22/36/3 
f 76/60/3 29/62/3 22/36/3 
f 72/56/3 76/60/3 22/36/3 
f 72/56/3 22/36/3 40/35/3 
f 77/64/3 72/56/3 40/35/3 
f 77/64/3 40/35/3 63/43/3 
f 54/65/6 78/45/6 79/44/6 
f 79/44/6 55/66/6 54/65/6 
f 80/67/8 81/68/8 66/69/8 
f 80/67/8 66/69/8 65/70/8 
f 80/67/8 65/70/8 82/71/8 
f 80/67/8 82/71/8 83/64/8 
usemtl main_color_1
f 64/51/7 84/51/7 82/52/7 
f 82/52/7 65/52/7 64/51/7 
f 85/34/7 86/33/7 45/33/7 
f 45/33/7 44/34/7 85/34/7 
f 73/28/9 87/72/9 9/9/9 
f 73/28/9 9/9/9 8/8/9 
f 73/28/9 8/8/9 88/27/9 
f 73/28/7 72/28/7 89/72/7 
f 89/72/7 87/72/7 73/28/7 
usemtl glass
f 69/55/2 68/54/2 90/73/2 
f 91/74/2 74/75/2 73/28/2 
f 91/74/2 73/28/2 88/27/2 
f 88/27/2 92/76/2 93/77/2 
f 88/27/2 93/77/2 94/20/2 
f 91/74/2 88/27/2 94/20/2 
f 94/20/2 95/6/2 96/78/2 
f 94/20/2 96/78/2 97/79/2 
f 91/74/2 94/20/2 97/79/2 
f 90/73/2 91/74/2 97/79/2 
f 69/55/2 90/73/2 97/79/2 
f 69/55/2 97/79/2 98/80/2 
usemtl main_color_1
f 99/54/7 100/55/7 101/55/7 
f 101/55/7 102/54/7 99/54/7 
f 36/31/7 103/31/7 104/32/7 
f 104/32/7 37/32/7 36/31/7 
usemtl glass
f 43/61/3 105/60/3 85/59/3 
f 85/59/3 44/81/3 43/61/3 
usemtl main_color_1
f 106/29/7 107/30/7 31/30/7 
f 31/30/7 30/29/7 106/29/7 
usemtl glass
f 108/59/3 91/58/3 90/82/3 
f 90/82/3 109/83/3 108/59/3 
usemtl main_color_1
f 91/74/7 108/74/7 75/75/7 
f 75/75/7 74/75/7 91/74/7 
f 68/84/10 71/85/10 109/83/10 
f 109/83/10 90/82/10 68/84/10 
usemtl glass
f 14/9/1 110/8/1 111/7/1 
f 111/7/1 15/10/1 14/9/1 
f 112/17/3 113/16/3 114/15/3 
f 112/17/3 114/15/3 115/86/3 
f 112/17/3 115/86/3 116/87/3 
f 112/17/3 116/87/3 117/11/3 
usemtl main_color_1
f 118/88/5 119/89/5 120/90/5 
f 120/90/5 121/91/5 118/88/5 
usemtl glass
f 92/76/6 88/27/6 8/8/6 
f 92/76/6 8/8/6 7/7/6 
f 111/7/6 110/8/6 122/27/6 
f 111/7/6 122/27/6 123/76/6 
f 7/7/6 111/7/6 123/76/6 
f 92/76/6 7/7/6 123/76/6 
f 124/79/11 125/78/11 126/6/11 
f 124/79/11 126/6/11 127/20/11 
f 127/20/11 128/77/11 123/76/11 
f 127/20/11 123/76/11 122/27/11 
f 124/79/11 127/20/11 122/27/11 
f 122/27/11 129/28/11 130/75/11 
f 122/27/11 130/75/11 131/74/11 
f 124/79/11 122/27/11 131/74/11 
f 131/74/11 132/73/11 102/54/11 
f 124/79/11 131/74/11 102/54/11 
f 124/79/11 102/54/11 101/55/11 
f 124/79/11 101/55/11 133/80/11 
f 134/92/3 120/90/3 119/89/3 
f 119/89/3 135/93/3 134/92/3 
f 118/88/3 121/91/3 136/94/3 
f 118/88/3 136/94/3 32/95/3 
f 32/95/3 31/96/3 107/97/3 
f 107/97/3 137/98/3 130/99/3 
f 32/95/3 107/97/3 130/99/3 
f 130/99/3 129/13/3 138/12/3 
f 32/95/3 130/99/3 138/12/3 
f 118/88/3 32/95/3 138/12/3 
f 139/93/3 118/88/3 138/12/3 
f 140/87/3 139/93/3 138/12/3 
f 135/25/1 119/26/1 118/21/1 
f 118/21/1 139/50/1 135/25/1 
f 34/24/6 33/27/6 141/23/6 
f 141/23/6 142/24/6 34/24/6 
f 17/51/2 16/10/2 113/53/2 
f 113/53/2 112/52/2 17/51/2 
usemtl main_color_1
f 49/20/4 48/6/4 143/100/4 
f 143/100/4 144/19/4 49/20/4 
f 17/51/7 112/52/7 117/52/7 
f 117/52/7 11/51/7 17/51/7 
f 14/9/12 13/72/12 129/28/12 
f 14/9/12 129/28/12 122/27/12 
f 14/9/12 122/27/12 110/8/12 
f 129/28/7 13/72/7 12/72/7 
f 12/72/7 138/28/7 129/28/7 
f 39/34/7 38/33/7 145/33/7 
f 145/33/7 146/34/7 39/34/7 
f 127/20/12 126/6/12 147/5/12 
f 127/20/12 147/5/12 148/101/12 
f 127/20/12 148/101/12 149/102/12 
usemtl glass
f 30/96/3 39/103/3 146/98/3 
f 146/98/3 106/97/3 30/96/3 
f 150/104/1 149/102/1 148/101/1 
f 148/101/1 151/105/1 150/104/1 
f 152/98/3 153/106/3 132/107/3 
f 132/107/3 131/99/3 152/98/3 
f 152/74/2 137/75/2 107/30/2 
f 107/30/2 106/29/2 146/34/2 
f 152/74/2 107/30/2 146/34/2 
f 145/33/2 104/32/2 103/31/2 
f 103/31/2 154/78/2 155/79/2 
f 145/33/2 103/31/2 155/79/2 
f 155/79/2 156/80/2 100/55/2 
f 145/33/2 155/79/2 100/55/2 
f 146/34/2 145/33/2 100/55/2 
f 152/74/2 146/34/2 100/55/2 
f 152/74/2 100/55/2 99/54/2 
f 152/74/2 99/54/2 153/73/2 
usemtl main_color_1
f 131/74/7 130/75/7 137/75/7 
f 137/75/7 152/74/7 131/74/7 
f 33/27/13 32/28/13 136/22/13 
f 136/22/13 141/23/13 33/27/13 
f 102/108/10 132/107/10 153/106/10 
f 153/106/10 99/109/10 102/108/10 
usemtl glass
f 157/79/1 158/78/1 159/31/1 
f 159/31/1 160/32/1 86/33/1 
f 157/79/1 159/31/1 86/33/1 
f 85/34/1 105/29/1 76/30/1 
f 76/30/1 75/75/1 108/74/1 
f 85/34/1 76/30/1 108/74/1 
f 108/74/1 109/73/1 71/54/1 
f 85/34/1 108/74/1 71/54/1 
f 86/33/1 85/34/1 71/54/1 
f 157/79/1 86/33/1 71/54/1 
f 157/79/1 71/54/1 70/55/1 
f 157/79/1 70/55/1 161/80/1 
f 162/102/2 163/104/2 164/105/2 
f 164/105/2 165/101/2 162/102/2 
f 166/15/3 167/68/3 168/67/3 
f 168/67/3 169/86/3 166/15/3 
f 63/50/14 56/25/14 26/25/14 
f 26/25/14 25/24/14 50/24/14 
f 63/50/14 26/25/14 50/24/14 
f 77/50/14 63/50/14 50/24/14 
f 51/18/14 170/18/14 171/110/14 
f 171/110/14 172/110/14 173/4/14 
f 51/18/14 171/110/14 173/4/14 
f 51/18/14 173/4/14 4/4/14 
f 50/24/14 51/18/14 4/4/14 
f 4/4/14 3/3/14 52/3/14 
f 52/3/14 55/41/14 79/41/14 
f 4/4/14 52/3/14 79/41/14 
f 4/4/14 79/41/14 57/3/14 
f 57/3/14 62/3/14 174/4/14 
f 4/4/14 57/3/14 174/4/14 
f 175/4/14 176/110/14 177/110/14 
f 177/110/14 19/18/14 18/18/14 
f 175/4/14 177/110/14 18/18/14 
f 174/4/14 175/4/14 18/18/14 
f 174/4/14 18/18/14 34/24/14 
f 4/4/14 174/4/14 34/24/14 
f 34/24/14 142/24/14 134/25/14 
f 134/25/14 135/25/14 139/50/14 
f 34/24/14 134/25/14 139/50/14 
f 34/24/14 139/50/14 140/50/14 
f 140/50/14 116/111/14 115/111/14 
f 115/111/14 169/112/14 168/112/14 
f 140/50/14 115/111/14 168/112/14 
f 140/50/14 168/112/14 80/111/14 
f 34/24/14 140/50/14 80/111/14 
f 4/4/14 34/24/14 80/111/14 
f 50/24/14 4/4/14 80/111/14 
f 77/50/14 50/24/14 80/111/14 
f 77/50/14 80/111/14 83/111/14 
usemtl accent_2
f 121/21/2 120/26/2 134/25/2 
f 121/21/2 134/25/2 142/24/2 
f 136/22/2 121/21/2 142/24/2 
f 136/22/2 142/24/2 141/23/2 
usemtl glass
f 51/18/3 49/20/3 144/19/3 
f 144/19/3 170/18/3 51/18/3 
usemtl main_color_1
f 178/113/15 179/114/15 180/115/15 
f 180/115/15 181/116/15 178/113/15 
f 10/10/7 67/10/7 66/53/7 
f 10/10/7 66/53/7 81/53/7 
f 81/53/7 167/117/7 166/117/7 
f 81/53/7 166/117/7 114/53/7 
f 114/53/7 113/53/7 16/10/7 
f 114/53/7 16/10/7 15/10/7 
f 81/53/7 114/53/7 15/10/7 
f 10/10/7 81/53/7 15/10/7 
f 7/7/7 10/10/7 15/10/7 
f 7/7/7 15/10/7 111/7/7 
usemtl glass
f 171/118/6 180/115/6 179/114/6 
f 179/114/6 172/119/6 171/118/6 
usemtl accent_2
f 182/1/2 183/5/2 184/6/2 
f 182/1/2 184/6/2 174/4/2 
f 61/2/2 182/1/2 174/4/2 
f 61/2/2 174/4/2 62/3/2 
f 181/120/1 180/121/1 171/110/1 
f 181/120/1 171/110/1 170/18/1 
f 181/120/1 170/18/1 144/19/1 
f 181/120/1 144/19/1 143/100/1 
usemtl glass
f 172/110/2 179/121/2 178/120/2 
f 178/120/2 173/4/2 172/110/2 
f 185/1/1 186/105/1 187/39/1 
f 187/39/1 188/2/1 185/1/1 
f 188/122/6 187/123/6 53/65/6 
f 188/122/6 53/65/6 52/66/6 
f 188/122/6 52/66/6 3/124/6 
f 188/122/6 3/124/6 2/125/6 
f 1/125/6 5/126/6 189/127/6 
f 189/127/6 165/128/6 164/65/6 
f 189/127/6 164/65/6 186/123/6 
f 1/125/6 189/127/6 186/123/6 
f 1/125/6 186/123/6 185/122/6 
usemtl main_color_1
f 185/1/7 188/2/7 2/2/7 
f 2/2/7 1/1/7 185/1/7 
f 128/77/7 93/77/7 92/76/7 
f 92/76/7 123/76/7 128/77/7 
usemtl glass
f 48/129/6 47/130/6 159/131/6 
f 159/131/6 158/132/6 96/133/6 
f 48/129/6 159/131/6 96/133/6 
f 96/133/6 95/127/6 6/126/6 
f 48/129/6 96/133/6 6/126/6 
f 6/126/6 4/124/6 173/119/6 
f 6/126/6 173/119/6 178/113/6 
f 48/129/6 6/126/6 178/113/6 
f 143/134/6 48/129/6 178/113/6 
f 181/116/6 143/134/6 178/113/6 
usemtl accent_2
f 77/50/1 83/111/1 82/52/1 
f 77/50/1 82/52/1 84/51/1 
f 77/50/1 84/51/1 89/72/1 
f 77/50/1 89/72/1 72/28/1 
usemtl main_color_1
f 162/102/9 165/101/9 189/5/9 
f 162/102/9 189/5/9 95/6/9 
f 162/102/9 95/6/9 94/20/9 
f 95/6/7 189/5/7 5/5/7 
f 5/5/7 6/6/7 95/6/7 
usemtl glass
f 46/130/6 45/135/6 86/132/6 
f 86/132/6 160/131/6 46/130/6 
f 157/132/6 161/136/6 98/137/6 
f 98/137/6 97/133/6 157/132/6 
usemtl main_color_1
f 21/20/13 20/19/13 190/100/13 
f 190/100/13 35/6/13 21/20/13 
f 97/79/7 96/78/7 158/78/7 
f 158/78/7 157/79/7 97/79/7 
f 69/138/16 98/137/16 161/136/16 
f 161/136/16 70/139/16 69/138/16 
usemtl accent_2
f 57/3/2 79/41/2 78/40/2 
f 78/40/2 58/39/2 57/3/2 
usemtl main_color_1
f 42/30/7 76/30/7 105/29/7 
f 105/29/7 43/29/7 42/30/7 
usemtl glass
f 128/77/3 127/20/3 149/102/3 
f 128/77/3 149/102/3 150/104/3 
f 163/104/3 162/102/3 94/20/3 
f 163/104/3 94/20/3 93/77/3 
f 150/104/3 163/104/3 93/77/3 
f 128/77/3 150/104/3 93/77/3 
usemtl main_color_1
f 191/140/15 192/141/15 193/142/15 
f 193/142/15 194/143/15 191/140/15 
usemtl glass
f 191/140/6 175/144/6 174/49/6 
f 191/140/6 174/49/6 184/145/6 
f 184/145/6 126/146/6 125/147/6 
f 125/147/6 154/148/6 103/149/6 
f 184/145/6 125/147/6 103/149/6 
f 191/140/6 184/145/6 103/149/6 
f 103/149/6 36/150/6 35/151/6 
f 191/140/6 103/149/6 35/151/6 
f 192/141/6 191/140/6 35/151/6 
f 192/141/6 35/151/6 190/152/6 
usemtl main_color_1
f 160/32/7 159/31/7 47/31/7 
f 47/31/7 46/32/7 160/32/7 
usemtl glass
f 177/153/6 176/144/6 194/143/6 
f 194/143/6 193/142/6 177/153/6 
f 176/110/1 175/4/1 191/120/1 
f 191/120/1 194/121/1 176/110/1 
usemtl accent_2
f 115/111/2 114/53/2 166/117/2 
f 166/117/2 169/112/2 115/111/2 
usemtl glass
f 195/1/2 60/2/2 59/39/2 
f 59/39/2 196/105/2 195/1/2 
f 147/146/6 183/145/6 182/48/6 
f 182/48/6 195/47/6 196/46/6 
f 147/146/6 182/48/6 196/46/6 
f 147/146/6 196/46/6 151/45/6 
f 147/146/6 151/45/6 148/154/6 
usemtl accent_2
f 19/18/2 177/110/2 193/121/2 
f 19/18/2 193/121/2 192/120/2 
f 19/18/2 192/120/2 190/100/2 
f 19/18/2 190/100/2 20/19/2 
usemtl main_color_1
f 195/1/7 182/1/7 61/2/7 
f 61/2/7 60/2/7 195/1/7 
f 151/105/7 196/105/7 59/39/7 
f 151/105/7 59/39/7 58/39/7 
f 58/39/7 78/40/7 54/40/7 
f 58/39/7 54/40/7 53/39/7 
f 53/39/7 187/39/7 186/105/7 
f 53/39/7 186/105/7 164/105/7 
f 58/39/7 53/39/7 164/105/7 
f 151/105/7 58/39/7 164/105/7 
f 150/104/7 151/105/7 164/105/7 
f 150/104/7 164/105/7 163/104/7 
usemtl accent_2
f 168/112/1 167/117/1 81/53/1 
f 81/53/1 80/111/1 168/112/1 
usemtl main_color_1
f 126/6/7 184/6/7 183/5/7 
f 183/5/7 147/5/7 126/6/7 
usemtl glass
f 87/57/3 89/56/3 84/71/3 
f 84/71/3 64/70/3 67/69/3 
f 87/57/3 84/71/3 67/69/3 
f 87/57/3 67/69/3 10/68/3 
f 87/57/3 10/68/3 9/155/3 
f 37/150/6 104/149/6 145/148/6 
f 145/148/6 38/156/6 37/150/6 
f 155/148/6 124/147/6 133/157/6 
f 133/157/6 156/158/6 155/148/6 
usemtl main_color_1
f 124/79/7 155/79/7 154/78/7 
f 154/78/7 125/78/7 124/79/7 
f 101/159/16 100/160/16 156/158/16 
f 156/158/16 133/157/16 101/159/16 
usemtl accent_2
f 140/50/2 138/28/2 12/72/2 
f 140/50/2 12/72/2 11/51/2 
f 140/50/2 11/51/2 117/52/2 
f 140/50/2 117/52/2 116/111/2 
# 388 faces

