# 3ds Max Wavefront OBJ Exporter v0.97b - (c)2007 guruware
# File Created: 28.03.2019 14:04:38

mtllib b5.mtl

#
# object b5
#

v  -31.9857 48.0396 -1.0241
v  -31.9857 92.0148 -1.0241
v  -12.9872 111.9482 -3.2706
v  -12.9872 48.0396 -3.2706
v  -0.9206 0.0000 -30.1553
v  -0.9206 71.7413 -30.1553
v  0.9206 71.7413 -30.1553
v  0.9206 0.0000 -30.1553
v  -8.8153 135.4024 9.6220
v  -12.9872 135.4024 6.5412
v  -12.9872 48.0396 6.5412
v  -4.6433 48.0396 12.7028
v  -4.6433 71.7413 12.7028
v  -4.6433 147.6972 12.7028
v  -8.8153 147.6972 9.6220
v  12.9872 48.0396 -6.5412
v  12.9872 48.0396 -3.2706
v  31.9857 48.0396 -1.0241
v  31.9857 48.0396 -2.0483
v  -4.6433 0.0000 -12.7028
v  -4.6433 48.0396 -12.7028
v  -4.6433 71.7413 -12.7028
v  4.6433 71.7413 -12.7028
v  4.6433 147.6972 -12.7028
v  8.8153 147.6972 -9.6220
v  8.8153 135.4024 -9.6220
v  12.9872 135.4024 -6.5412
v  4.6433 48.0396 -12.7028
v  12.9872 0.0000 -6.5412
v  16.4974 0.0000 -16.8984
v  16.4974 27.5989 -16.8984
v  14.9969 0.0000 -18.0065
v  14.9969 27.5989 -18.0065
v  -14.9969 27.5989 -18.0065
v  -14.9969 0.0000 -18.0065
v  -16.4974 0.0000 -16.8984
v  -16.4974 27.5989 -16.8984
v  31.9857 0.0000 -2.0483
v  4.6433 0.0000 -12.7028
v  8.8153 175.5422 -4.8110
v  12.9872 170.0489 -3.2706
v  12.9872 135.4024 -3.2706
v  8.8153 135.4024 -4.8110
v  8.8153 147.6972 -4.8110
v  4.6433 147.6972 -6.3514
v  4.6433 164.9769 -6.3514
v  8.8153 182.1072 -4.8110
v  4.6433 187.2054 -6.3514
v  4.6433 164.9769 6.3514
v  4.6433 147.6972 6.3514
v  8.8153 147.6972 4.8110
v  8.8153 135.4024 4.8110
v  12.9872 135.4024 3.2706
v  12.9872 170.0489 3.2706
v  8.8153 175.5422 4.8110
v  8.8153 182.1072 4.8110
v  4.6433 187.2054 6.3514
v  4.6433 160.7329 12.7028
v  -4.6433 160.7329 12.7028
v  4.6433 71.7413 12.7028
v  4.6433 147.6972 12.7028
v  12.9872 135.4024 6.5412
v  12.9872 48.0396 6.5412
v  12.9872 48.0396 3.2706
v  12.9872 111.9482 3.2706
v  12.9872 111.9482 -3.2706
v  4.6433 160.7329 -12.7028
v  -4.6433 164.9769 6.3514
v  -8.8153 175.5422 -4.8110
v  -8.8153 175.5422 4.8110
v  -8.8153 182.1072 4.8110
v  -8.8153 182.1072 -4.8110
v  4.6433 193.2982 -6.3514
v  4.6433 193.2982 6.3514
v  -4.6433 187.2054 -6.3514
v  -4.6433 193.2982 -6.3514
v  -4.6433 164.9769 -6.3514
v  -12.9872 170.0489 3.2706
v  -12.9872 135.4024 3.2706
v  -8.8153 135.4024 4.8110
v  -8.8153 147.6972 4.8110
v  -4.6433 147.6972 6.3514
v  -4.6433 187.2054 6.3514
v  4.6433 48.0396 12.7028
v  14.9969 27.5989 18.0065
v  16.4974 27.5989 16.8984
v  -12.9872 48.0396 -6.5412
v  -31.9857 48.0396 -2.0483
v  -4.6433 -0.0000 12.7028
v  -0.9206 -0.0000 30.1553
v  -0.9206 71.7413 30.1553
v  -12.9872 135.4024 -6.5412
v  -8.8153 135.4024 -9.6220
v  -8.8153 147.6972 -9.6220
v  -4.6433 147.6972 -12.7028
v  31.9857 92.0148 1.0241
v  31.9857 92.0148 -1.0241
v  -12.9872 0.0000 -6.5412
v  -14.9969 -0.0000 18.0065
v  -14.9969 27.5989 18.0065
v  -16.4974 27.5989 16.8984
v  -16.4974 -0.0000 16.8984
v  -31.9857 0.0000 -2.0483
v  -4.6433 160.7329 -12.7028
v  -12.9872 135.4024 -3.2706
v  -8.8153 135.4024 -4.8110
v  -8.8153 147.6972 -4.8110
v  -4.6433 147.6972 -6.3514
v  -12.9872 170.0489 -3.2706
v  -12.9872 111.9482 3.2706
v  -12.9872 48.0396 3.2706
v  31.9857 48.0396 1.0241
v  -31.9857 92.0148 1.0241
v  -31.9857 48.0396 1.0241
v  -4.6433 193.2982 6.3514
v  31.9857 48.0396 2.0483
v  8.8153 135.4024 9.6220
v  8.8153 147.6972 9.6220
v  12.9872 -0.0000 6.5412
v  16.4974 -0.0000 16.8984
v  31.9857 -0.0000 2.0483
v  0.9206 -0.0000 30.1553
v  0.9206 71.7413 30.1553
v  14.9969 -0.0000 18.0065
v  4.6433 -0.0000 12.7028
v  -31.9857 -0.0000 2.0483
v  -31.9857 48.0396 2.0483
v  -12.9872 -0.0000 6.5412
# 128 vertices

vn -0.1174 0.0000 -0.9931
vn 0.0000 0.0000 -1.0000
vn -0.5940 -0.0000 0.8044
vn 0.0000 1.0000 0.0000
vn -0.9780 0.0000 -0.2086
vn 0.5940 0.0000 -0.8044
vn 0.9471 -0.0000 0.3210
vn -0.5940 0.0000 -0.8044
vn 0.2301 0.0000 -0.9732
vn -0.4559 0.0000 -0.8900
vn 0.3464 0.0000 -0.9381
vn 0.3464 -0.0000 0.9381
vn 0.0000 -0.0000 1.0000
vn 1.0000 0.0000 -0.0000
vn 0.0000 0.9808 0.1953
vn -1.0000 0.0000 -0.0000
vn -0.3464 -0.0000 0.9381
vn 0.9780 0.0000 -0.2086
vn 0.2998 0.8633 0.4060
vn -0.9780 -0.0000 0.2086
vn 0.2984 0.9544 0.0000
vn -0.9471 -0.0000 0.3210
vn -0.2301 0.0000 -0.9732
vn 0.4559 0.0000 -0.8900
vn -0.0000 1.0000 0.0000
vn -0.3652 0.9309 0.0000
vn 0.3421 0.9397 0.0000
vn -0.2998 0.8633 0.4060
vn 0.1174 -0.0000 0.9931
vn -0.1174 -0.0000 0.9931
vn 0.2998 0.8633 -0.4060
vn 0.5940 -0.0000 0.8044
vn 0.0000 0.9808 -0.1953
vn 0.9471 0.0000 -0.3210
vn 0.2301 -0.0000 0.9732
vn -0.4559 -0.0000 0.8900
vn -0.2984 0.9544 0.0000
vn -0.3464 0.0000 -0.9381
vn -0.3421 0.9397 0.0000
vn 0.0000 -1.0000 -0.0000
vn 0.1174 0.0000 -0.9931
vn -0.2998 0.8633 -0.4060
vn 0.9780 -0.0000 0.2086
vn -0.9471 0.0000 -0.3210
vn -0.2301 -0.0000 0.9732
vn 0.4559 -0.0000 0.8900
vn 0.3652 0.9309 0.0000
vn -1.0000 -0.0000 0.0000
# 48 vertex normals

vt 0.5428 0.4251 0.0000
vt 0.5428 0.4964 0.0000
vt 0.5120 0.5287 0.0000
vt 0.5120 0.4251 0.0000
vt 0.4924 0.3472 0.0000
vt 0.4924 0.4635 0.0000
vt 0.4894 0.4635 0.0000
vt 0.4894 0.3472 0.0000
vt 0.4948 0.5667 0.0000
vt 0.4880 0.5667 0.0000
vt 0.4880 0.4251 0.0000
vt 0.5015 0.4251 0.0000
vt 0.5015 0.4635 0.0000
vt 0.5015 0.5867 0.0000
vt 0.4948 0.5867 0.0000
vt 0.9397 0.0000 0.0000
vt 0.9658 0.0062 0.0000
vt 0.9479 0.1617 0.0000
vt 0.9397 0.1598 0.0000
vt 0.5278 0.3337 0.0000
vt 0.5278 0.4272 0.0000
vt 0.5278 0.4733 0.0000
vt 0.5618 0.4733 0.0000
vt 0.5618 0.3337 0.0000
vt 0.4834 0.4635 0.0000
vt 0.4834 0.5867 0.0000
vt 0.4766 0.5867 0.0000
vt 0.4766 0.5667 0.0000
vt 0.4699 0.5667 0.0000
vt 0.4699 0.4251 0.0000
vt 0.4834 0.4251 0.0000
vt 0.5411 0.3434 0.0000
vt 0.5598 0.3434 0.0000
vt 0.5598 0.3932 0.0000
vt 0.5411 0.4300 0.0000
vt 0.4666 0.3472 0.0000
vt 0.4666 0.3919 0.0000
vt 0.4642 0.3919 0.0000
vt 0.4642 0.3472 0.0000
vt 0.4382 0.3932 0.0000
vt 0.4382 0.3434 0.0000
vt 0.4402 0.3434 0.0000
vt 0.4402 0.3932 0.0000
vt 0.4391 0.3472 0.0000
vt 0.4699 0.3472 0.0000
vt 0.4391 0.4251 0.0000
vt 0.4834 0.3472 0.0000
vt 0.4766 0.6318 0.0000
vt 0.4699 0.6229 0.0000
vt 0.4834 0.6147 0.0000
vt 0.4766 0.6425 0.0000
vt 0.4834 0.6507 0.0000
vt 0.5166 0.6147 0.0000
vt 0.5166 0.5867 0.0000
vt 0.5234 0.5867 0.0000
vt 0.5234 0.5667 0.0000
vt 0.5301 0.5667 0.0000
vt 0.5301 0.6229 0.0000
vt 0.5234 0.6318 0.0000
vt 0.5234 0.6425 0.0000
vt 0.5166 0.6507 0.0000
vt 0.5166 0.6078 0.0000
vt 0.5015 0.6078 0.0000
vt 0.5166 0.4635 0.0000
vt 0.5234 0.5877 0.0000
vt 0.5175 0.5877 0.0000
vt 0.5175 0.4300 0.0000
vt 0.5234 0.4300 0.0000
vt 0.5234 0.5454 0.0000
vt 0.5352 0.5454 0.0000
vt 0.5352 0.4300 0.0000
vt 0.5411 0.5877 0.0000
vt 0.5352 0.5877 0.0000
vt 0.5234 0.6502 0.0000
vt 0.5352 0.6502 0.0000
vt 0.9636 0.5946 0.0000
vt 0.9636 0.5552 0.0000
vt 0.9978 0.5426 0.0000
vt 0.9978 0.5694 0.0000
vt 0.5380 0.5877 0.0000
vt 0.5467 0.5877 0.0000
vt 0.5467 0.6099 0.0000
vt 0.5380 0.6099 0.0000
vt 0.5408 0.6099 0.0000
vt 0.5523 0.6099 0.0000
vt 0.5523 0.6334 0.0000
vt 0.5408 0.6411 0.0000
vt 0.9562 0.3674 0.0000
vt 0.9562 0.4194 0.0000
vt 0.9220 0.4320 0.0000
vt 0.9220 0.3926 0.0000
vt 0.5015 0.6147 0.0000
vt 0.4620 0.6601 0.0000
vt 0.4793 0.6601 0.0000
vt 0.4793 0.6720 0.0000
vt 0.4620 0.6720 0.0000
vt 0.5408 0.6922 0.0000
vt 0.5179 0.6922 0.0000
vt 0.5179 0.6812 0.0000
vt 0.5408 0.6812 0.0000
vt 0.4985 0.6507 0.0000
vt 0.4985 0.6606 0.0000
vt 0.4834 0.6606 0.0000
vt 0.4985 0.6147 0.0000
vt 0.4948 0.6318 0.0000
vt 0.4880 0.6229 0.0000
vt 0.4948 0.6425 0.0000
vt 0.5015 0.6507 0.0000
vt 0.5166 0.4251 0.0000
vt 0.5334 0.3919 0.0000
vt 0.5358 0.3919 0.0000
vt 0.5301 0.4251 0.0000
vt 0.8236 0.8228 0.0000
vt 0.8236 0.9826 0.0000
vt 0.8154 0.9846 0.0000
vt 0.7975 0.8290 0.0000
vt 0.4784 0.3337 0.0000
vt 0.4444 0.3337 0.0000
vt 0.4444 0.4733 0.0000
vt 0.4784 0.4733 0.0000
vt 0.4784 0.4272 0.0000
vt 0.4985 0.4635 0.0000
vt 0.4985 0.4251 0.0000
vt 0.5120 0.5667 0.0000
vt 0.5052 0.5667 0.0000
vt 0.5052 0.5867 0.0000
vt 0.4985 0.5867 0.0000
vt 0.5275 0.5094 0.0000
vt 0.5312 0.5094 0.0000
vt 0.4589 0.3434 0.0000
vt 0.4589 0.4300 0.0000
vt 0.4848 0.3472 0.0000
vt 0.4848 0.3919 0.0000
vt 0.4823 0.3919 0.0000
vt 0.4823 0.3472 0.0000
vt 0.5428 0.3472 0.0000
vt 0.5120 0.3472 0.0000
vt 0.5152 0.3472 0.0000
vt 0.5152 0.3919 0.0000
vt 0.4985 0.3472 0.0000
vt 0.4985 0.6078 0.0000
vt 0.4834 0.6078 0.0000
vt 0.9658 0.0520 0.0000
vt 0.9999 0.0772 0.0000
vt 0.9999 0.1040 0.0000
vt 0.9658 0.0914 0.0000
vt 0.4620 0.5877 0.0000
vt 0.4620 0.6099 0.0000
vt 0.4533 0.6099 0.0000
vt 0.4533 0.5877 0.0000
vt 0.4592 0.6099 0.0000
vt 0.4592 0.6411 0.0000
vt 0.4477 0.6334 0.0000
vt 0.4477 0.6099 0.0000
vt 0.8882 0.5451 0.0000
vt 0.8540 0.5198 0.0000
vt 0.8540 0.4805 0.0000
vt 0.8882 0.4931 0.0000
vt 0.4648 0.6502 0.0000
vt 0.4766 0.6502 0.0000
vt 0.4648 0.5877 0.0000
vt 0.4589 0.5877 0.0000
vt 0.4648 0.4300 0.0000
vt 0.4648 0.5454 0.0000
vt 0.4766 0.5454 0.0000
vt 0.4766 0.4300 0.0000
vt 0.4825 0.4300 0.0000
vt 0.4825 0.5877 0.0000
vt 0.4766 0.5877 0.0000
vt 0.5207 0.6720 0.0000
vt 0.5380 0.6720 0.0000
vt 0.5609 0.4251 0.0000
vt 0.5609 0.4964 0.0000
vt 0.5301 0.5287 0.0000
vt 0.4880 0.5287 0.0000
vt 0.4572 0.4964 0.0000
vt 0.4572 0.4251 0.0000
vt 0.4592 0.6812 0.0000
vt 0.4821 0.6812 0.0000
vt 0.4821 0.6922 0.0000
vt 0.4592 0.6922 0.0000
vt 0.4924 0.7549 0.0000
vt 0.4924 0.9146 0.0000
vt 0.4842 0.9166 0.0000
vt 0.4663 0.7610 0.0000
vt 0.5175 0.3434 0.0000
vt 0.4989 0.3932 0.0000
vt 0.4989 0.3434 0.0000
vt 0.5275 0.4300 0.0000
vt 0.5256 0.4300 0.0000
vt 0.5256 0.3434 0.0000
vt 0.5330 0.3434 0.0000
vt 0.5330 0.4300 0.0000
vt 0.5312 0.4300 0.0000
vt 0.5106 0.3472 0.0000
vt 0.5106 0.4635 0.0000
vt 0.5076 0.4635 0.0000
vt 0.5076 0.3472 0.0000
vt 0.5609 0.3472 0.0000
vt 0.5301 0.3472 0.0000
vt 0.5334 0.3472 0.0000
vt 0.5166 0.3472 0.0000
vt 0.4670 0.3434 0.0000
vt 0.4744 0.3434 0.0000
vt 0.4744 0.4300 0.0000
vt 0.4725 0.4300 0.0000
vt 0.4725 0.5094 0.0000
vt 0.4688 0.5094 0.0000
vt 0.4688 0.4300 0.0000
vt 0.4670 0.4300 0.0000
vt 0.9658 0.0000 0.0000
vt 0.9999 0.0252 0.0000
vt 0.9999 0.0520 0.0000
vt 0.9658 0.0394 0.0000
vt 0.5207 0.5877 0.0000
vt 0.5207 0.6099 0.0000
vt 0.5120 0.6099 0.0000
vt 0.5120 0.5877 0.0000
vt 0.5179 0.6099 0.0000
vt 0.5179 0.6411 0.0000
vt 0.5064 0.6334 0.0000
vt 0.5064 0.6099 0.0000
vt 0.8199 0.4805 0.0000
vt 0.8540 0.5057 0.0000
vt 0.8540 0.5451 0.0000
vt 0.8199 0.5325 0.0000
vt 0.3379 0.5440 0.0000
vt 0.3228 0.5440 0.0000
vt 0.2923 0.4011 0.0000
vt 0.3684 0.4011 0.0000
vt 0.5120 0.6229 0.0000
vt 0.5052 0.6318 0.0000
vt 0.5052 0.6425 0.0000
vt 0.9720 0.3674 0.0000
vt 0.8959 0.3674 0.0000
vt 0.8959 0.2635 0.0000
vt 0.9720 0.2635 0.0000
vt 0.2948 0.2451 0.0000
vt 0.3769 0.3659 0.0000
vt 0.3665 0.3768 0.0000
vt 0.2422 0.3000 0.0000
vt 0.2149 0.3912 0.0000
vt 0.1998 0.3937 0.0000
vt 0.1585 0.3143 0.0000
vt 0.0242 0.4011 0.0000
vt 0.0000 0.3779 0.0000
vt 0.0811 0.2402 0.0000
vt 0.0000 0.2023 0.0000
vt 0.0020 0.1872 0.0000
vt 0.0920 0.1560 0.0000
vt 0.0099 0.0352 0.0000
vt 0.0204 0.0243 0.0000
vt 0.1446 0.1012 0.0000
vt 0.1720 0.0100 0.0000
vt 0.1870 0.0074 0.0000
vt 0.2284 0.0868 0.0000
vt 0.3626 0.0000 0.0000
vt 0.3868 0.0232 0.0000
vt 0.3057 0.1609 0.0000
vt 0.3868 0.1988 0.0000
vt 0.3849 0.2140 0.0000
vt 0.4699 0.5287 0.0000
vt 0.4391 0.4964 0.0000
vt 0.5177 0.3919 0.0000
vt 0.9220 0.3736 0.0000
vt 0.9041 0.5291 0.0000
vt 0.8959 0.5272 0.0000
vt 0.2666 0.8755 0.0000
vt 0.1906 0.8755 0.0000
vt 0.2210 0.7327 0.0000
vt 0.2361 0.7327 0.0000
vt 0.4825 0.3434 0.0000
vt 0.5011 0.3434 0.0000
vt 0.5011 0.3932 0.0000
vt 0.5207 0.6601 0.0000
vt 0.5380 0.6601 0.0000
vt 0.5358 0.3472 0.0000
vt 0.4572 0.3472 0.0000
vt 0.4880 0.3472 0.0000
vt 0.5015 0.3472 0.0000
vt 0.9636 0.6466 0.0000
vt 0.9636 0.6072 0.0000
vt 0.9978 0.5946 0.0000
vt 0.9978 0.6214 0.0000
vt 0.4793 0.5877 0.0000
vt 0.4880 0.5877 0.0000
vt 0.4880 0.6099 0.0000
vt 0.4793 0.6099 0.0000
vt 0.4821 0.6099 0.0000
vt 0.4936 0.6099 0.0000
vt 0.4936 0.6334 0.0000
vt 0.4821 0.6411 0.0000
vt 0.8987 0.9711 0.0000
vt 0.8987 0.9191 0.0000
vt 0.9329 0.9065 0.0000
vt 0.9329 0.9459 0.0000
vt 0.5166 0.6606 0.0000
vt 0.5015 0.6606 0.0000
# 298 texture coords

o b5
g b5
usemtl glass
s off
f 1/1/1 2/2/1 3/3/1 
f 3/3/1 4/4/1 1/1/1 
f 5/5/2 6/6/2 7/7/2 
f 7/7/2 8/8/2 5/5/2 
f 9/9/3 10/10/3 11/11/3 
f 9/9/3 11/11/3 12/12/3 
f 9/9/3 12/12/3 13/13/3 
f 9/9/3 13/13/3 14/14/3 
f 9/9/3 14/14/3 15/15/3 
usemtl accent_2
f 16/16/4 17/17/4 18/18/4 
f 18/18/4 19/19/4 16/16/4 
usemtl glass
f 20/20/5 21/21/5 22/22/5 
f 20/20/5 22/22/5 6/23/5 
f 20/20/5 6/23/5 5/24/5 
f 23/25/6 24/26/6 25/27/6 
f 23/25/6 25/27/6 26/28/6 
f 26/28/6 27/29/6 16/30/6 
f 23/25/6 26/28/6 16/30/6 
f 23/25/6 16/30/6 28/31/6 
f 29/32/7 30/33/7 31/34/7 
f 31/34/7 16/35/7 29/32/7 
f 32/36/6 33/37/6 31/38/6 
f 31/38/6 30/39/6 32/36/6 
f 34/40/8 35/41/8 36/42/8 
f 36/42/8 37/43/8 34/40/8 
f 38/44/9 29/45/9 16/30/9 
f 16/30/9 19/46/9 38/44/9 
f 32/36/10 39/47/10 28/31/10 
f 28/31/10 33/37/10 32/36/10 
f 40/48/11 41/49/11 42/29/11 
f 42/29/11 43/28/11 44/27/11 
f 40/48/11 42/29/11 44/27/11 
f 44/27/11 45/26/11 46/50/11 
f 40/48/11 44/27/11 46/50/11 
f 47/51/11 40/48/11 46/50/11 
f 48/52/11 47/51/11 46/50/11 
f 49/53/12 50/54/12 51/55/12 
f 51/55/12 52/56/12 53/57/12 
f 49/53/12 51/55/12 53/57/12 
f 53/57/12 54/58/12 55/59/12 
f 49/53/12 53/57/12 55/59/12 
f 49/53/12 55/59/12 56/60/12 
f 49/53/12 56/60/12 57/61/12 
f 58/62/13 59/63/13 14/14/13 
f 58/62/13 14/14/13 13/13/13 
f 58/62/13 13/13/13 60/64/13 
f 58/62/13 60/64/13 61/54/13 
usemtl accent_2
f 53/65/14 62/66/14 63/67/14 
f 63/67/14 64/68/14 65/69/14 
f 53/65/14 63/67/14 65/69/14 
f 66/70/14 17/71/14 16/35/14 
f 16/35/14 27/72/14 42/73/14 
f 66/70/14 16/35/14 42/73/14 
f 65/69/14 66/70/14 42/73/14 
f 53/65/14 65/69/14 42/73/14 
f 54/74/14 53/65/14 42/73/14 
f 41/75/14 54/74/14 42/73/14 
usemtl main_color_1
f 26/76/4 43/77/4 42/78/4 
f 42/78/4 27/79/4 26/76/4 
usemtl glass
f 43/80/14 26/81/14 25/82/14 
f 25/82/14 44/83/14 43/80/14 
f 45/84/14 24/85/14 67/86/14 
f 67/86/14 46/87/14 45/84/14 
usemtl main_color_1
f 24/88/4 45/89/4 44/90/4 
f 44/90/4 25/91/4 24/88/4 
f 49/53/15 68/92/15 59/63/15 
f 59/63/15 58/62/15 49/53/15 
usemtl glass
f 69/93/16 70/94/16 71/95/16 
f 71/95/16 72/96/16 69/93/16 
f 73/97/14 74/98/14 57/99/14 
f 57/99/14 48/100/14 73/97/14 
f 75/101/2 76/102/2 73/103/2 
f 75/101/2 73/103/2 48/52/2 
f 75/101/2 48/52/2 46/50/2 
f 75/101/2 46/50/2 77/104/2 
f 70/105/17 78/106/17 79/10/17 
f 79/10/17 80/9/17 81/15/17 
f 70/105/17 79/10/17 81/15/17 
f 81/15/17 82/14/17 68/92/17 
f 70/105/17 81/15/17 68/92/17 
f 71/107/17 70/105/17 68/92/17 
f 83/108/17 71/107/17 68/92/17 
f 39/20/18 8/24/18 7/23/18 
f 39/20/18 7/23/18 23/22/18 
f 39/20/18 23/22/18 28/21/18 
usemtl accent_2
f 84/109/19 85/110/19 86/111/19 
f 86/111/19 63/112/19 84/109/19 
f 87/113/4 88/114/4 1/115/4 
f 1/115/4 4/116/4 87/113/4 
usemtl glass
f 89/117/20 90/118/20 91/119/20 
f 89/117/20 91/119/20 13/120/20 
f 89/117/20 13/120/20 12/121/20 
f 22/122/8 21/123/8 87/4/8 
f 87/4/8 92/124/8 93/125/8 
f 22/122/8 87/4/8 93/125/8 
f 22/122/8 93/125/8 94/126/8 
f 22/122/8 94/126/8 95/127/8 
usemtl accent_2
f 65/69/21 96/128/21 97/129/21 
f 97/129/21 66/70/21 65/69/21 
usemtl glass
f 98/130/22 87/131/22 37/43/22 
f 37/43/22 36/42/22 98/130/22 
f 99/132/3 100/133/3 101/134/3 
f 101/134/3 102/135/3 99/132/3 
f 103/136/23 88/1/23 87/4/23 
f 87/4/23 98/137/23 103/136/23 
f 35/138/24 34/139/24 21/123/24 
f 21/123/24 20/140/24 35/138/24 
f 95/127/2 104/141/2 67/142/2 
f 95/127/2 67/142/2 24/26/2 
f 95/127/2 24/26/2 23/25/2 
f 95/127/2 23/25/2 22/122/2 
usemtl main_color_1
f 93/143/4 92/144/4 105/145/4 
f 105/145/4 106/146/4 93/143/4 
usemtl glass
f 106/147/16 107/148/16 94/149/16 
f 94/149/16 93/150/16 106/147/16 
f 108/151/16 77/152/16 104/153/16 
f 104/153/16 95/154/16 108/151/16 
usemtl main_color_1
f 95/155/25 94/156/25 107/157/25 
f 107/157/25 108/158/25 95/155/25 
f 70/94/26 69/93/26 109/159/26 
f 109/159/26 78/160/26 70/94/26 
usemtl accent_2
f 105/161/16 92/162/16 87/131/16 
f 87/131/16 4/163/16 3/164/16 
f 105/161/16 87/131/16 3/164/16 
f 110/165/16 111/166/16 11/167/16 
f 11/167/16 10/168/16 79/169/16 
f 110/165/16 11/167/16 79/169/16 
f 3/164/16 110/165/16 79/169/16 
f 105/161/16 3/164/16 79/169/16 
f 105/161/16 79/169/16 78/160/16 
f 105/161/16 78/160/16 109/159/16 
usemtl main_color_1
f 57/99/27 56/170/27 47/171/27 
f 47/171/27 48/100/27 57/99/27 
usemtl accent_2
f 12/12/28 11/11/28 101/134/28 
f 101/134/28 100/133/28 12/12/28 
usemtl glass
f 112/172/29 96/173/29 65/174/29 
f 65/174/29 64/112/29 112/172/29 
f 111/11/30 110/175/30 113/176/30 
f 113/176/30 114/177/30 111/11/30 
f 75/178/16 83/179/16 115/180/16 
f 115/180/16 76/181/16 75/178/16 
usemtl accent_2
f 28/31/31 16/30/31 31/38/31 
f 31/38/31 33/37/31 28/31/31 
f 63/182/4 116/183/4 112/184/4 
f 112/184/4 64/185/4 63/182/4 
usemtl glass
f 60/64/32 84/109/32 63/112/32 
f 63/112/32 62/57/32 117/56/32 
f 60/64/32 63/112/32 117/56/32 
f 60/64/32 117/56/32 118/55/32 
f 60/64/32 118/55/32 61/54/32 
usemtl main_color_1
f 67/142/33 104/141/33 77/104/33 
f 77/104/33 46/50/33 67/142/33 
usemtl glass
f 119/186/34 63/67/34 86/187/34 
f 86/187/34 120/188/34 119/186/34 
f 112/189/14 116/190/14 121/191/14 
f 121/191/14 38/192/14 19/193/14 
f 121/191/14 19/193/14 18/194/14 
f 112/189/14 121/191/14 18/194/14 
f 96/128/14 112/189/14 18/194/14 
f 97/129/14 96/128/14 18/194/14 
f 122/195/13 123/196/13 91/197/13 
f 91/197/13 90/198/13 122/195/13 
f 121/199/35 116/172/35 63/112/35 
f 63/112/35 119/200/35 121/199/35 
f 124/201/36 85/110/36 84/109/36 
f 84/109/36 125/202/36 124/201/36 
f 103/203/16 126/204/16 127/205/16 
f 103/203/16 127/205/16 114/206/16 
f 114/206/16 113/207/16 2/208/16 
f 114/206/16 2/208/16 1/209/16 
f 103/203/16 114/206/16 1/209/16 
f 103/203/16 1/209/16 88/210/16 
usemtl accent_2
f 110/165/37 3/164/37 2/208/37 
f 2/208/37 113/207/37 110/165/37 
usemtl main_color_1
f 117/211/25 62/212/25 53/213/25 
f 53/213/25 52/214/25 117/211/25 
usemtl glass
f 52/215/14 51/216/14 118/217/14 
f 118/217/14 117/218/14 52/215/14 
f 50/219/14 49/220/14 58/221/14 
f 58/221/14 61/222/14 50/219/14 
usemtl main_color_1
f 61/223/4 118/224/4 51/225/4 
f 51/225/4 50/226/4 61/223/4 
f 7/227/4 6/228/4 22/229/4 
f 22/229/4 23/230/4 7/227/4 
usemtl glass
f 77/104/38 108/127/38 107/126/38 
f 107/126/38 106/125/38 105/124/38 
f 77/104/38 107/126/38 105/124/38 
f 105/124/38 109/231/38 69/232/38 
f 77/104/38 105/124/38 69/232/38 
f 77/104/38 69/232/38 72/233/38 
f 77/104/38 72/233/38 75/101/38 
usemtl main_color_1
f 83/179/39 75/178/39 72/96/39 
f 72/96/39 71/95/39 83/179/39 
f 73/234/4 76/235/4 115/236/4 
f 115/236/4 74/237/4 73/234/4 
usemtl glass
f 20/238/40 5/239/40 8/240/40 
f 20/238/40 8/240/40 39/241/40 
f 39/241/40 32/242/40 30/243/40 
f 39/241/40 30/243/40 29/244/40 
f 29/244/40 38/245/40 121/246/40 
f 29/244/40 121/246/40 119/247/40 
f 39/241/40 29/244/40 119/247/40 
f 119/247/40 120/248/40 124/249/40 
f 119/247/40 124/249/40 125/250/40 
f 125/250/40 122/251/40 90/252/40 
f 125/250/40 90/252/40 89/253/40 
f 119/247/40 125/250/40 89/253/40 
f 89/253/40 99/254/40 102/255/40 
f 89/253/40 102/255/40 128/256/40 
f 128/256/40 126/257/40 103/258/40 
f 128/256/40 103/258/40 98/259/40 
f 89/253/40 128/256/40 98/259/40 
f 119/247/40 89/253/40 98/259/40 
f 39/241/40 119/247/40 98/259/40 
f 20/238/40 39/241/40 98/259/40 
f 20/238/40 98/259/40 36/260/40 
f 20/238/40 36/260/40 35/261/40 
f 17/30/41 66/262/41 97/263/41 
f 97/263/41 18/46/41 17/30/41 
usemtl accent_2
f 21/123/42 34/139/42 37/264/42 
f 37/264/42 87/4/42 21/123/42 
f 11/235/25 111/265/25 114/266/25 
f 114/266/25 127/267/25 11/235/25 
usemtl glass
f 125/117/43 84/121/43 60/120/43 
f 125/117/43 60/120/43 123/119/43 
f 125/117/43 123/119/43 122/118/43 
usemtl main_color_1
f 60/268/4 13/269/4 91/270/4 
f 91/270/4 123/271/4 60/268/4 
usemtl glass
f 128/272/44 102/273/44 101/274/44 
f 101/274/44 11/167/44 128/272/44 
f 47/171/14 56/170/14 55/275/14 
f 55/275/14 40/276/14 47/171/14 
f 85/110/32 124/201/32 120/277/32 
f 120/277/32 86/111/32 85/110/32 
f 126/278/45 128/279/45 11/11/45 
f 11/11/45 127/177/45 126/278/45 
f 99/132/46 89/280/46 12/12/46 
f 12/12/46 100/133/46 99/132/46 
usemtl main_color_1
f 55/275/47 54/74/47 41/75/47 
f 41/75/47 40/276/47 55/275/47 
f 9/281/4 80/282/4 79/283/4 
f 79/283/4 10/284/4 9/281/4 
usemtl glass
f 80/285/16 9/286/16 15/287/16 
f 15/287/16 81/288/16 80/285/16 
f 82/289/48 14/290/48 59/291/48 
f 59/291/48 68/292/48 82/289/48 
usemtl main_color_1
f 14/293/25 82/294/25 81/295/25 
f 81/295/25 15/296/25 14/293/25 
usemtl glass
f 74/297/13 115/298/13 83/108/13 
f 74/297/13 83/108/13 68/92/13 
f 74/297/13 68/92/13 49/53/13 
f 74/297/13 49/53/13 57/61/13 
# 252 faces

