# 3ds Max Wavefront OBJ Exporter v0.97b - (c)2007 guruware
# File Created: 28.03.2019 14:05:01

mtllib b6.mtl

#
# object b6
#

v  0.0000 81.9628 -20.8406
v  6.7032 81.9628 -23.2821
v  0.0000 67.7487 -29.7155
v  -14.5017 15.1022 10.8085
v  -14.5017 66.0152 10.8085
v  -8.3770 81.9628 10.2560
v  -8.3770 15.1022 10.2560
v  3.5817 -0.0000 33.9022
v  3.5817 41.3988 33.9022
v  0.0000 41.3988 33.3268
v  0.0000 -0.0000 33.3268
v  -3.4452 115.2908 -10.6686
v  -3.4452 128.5964 -10.6686
v  -3.4452 147.7061 -10.6686
v  0.0000 147.7061 -7.0621
v  0.0000 115.2908 -7.0621
v  -16.0086 15.1022 0.0000
v  -10.6282 15.1022 0.0000
v  -8.3770 15.1022 -10.2560
v  -14.5017 15.1022 -10.8085
v  14.5017 0.0000 -10.8085
v  15.5038 0.0000 -20.6111
v  15.5038 41.3988 -20.6111
v  15.5038 66.0152 -20.6111
v  14.5017 66.0152 -10.8085
v  14.5017 15.1022 -10.8085
v  -15.5038 -0.0000 20.6111
v  -15.3606 -0.0000 31.8195
v  -15.3606 31.4817 31.8195
v  -15.5038 41.3988 20.6111
v  16.0086 0.0000 -0.0000
v  16.0086 15.1022 0.0000
v  9.3000 41.3988 -20.8298
v  15.3606 31.4817 -31.8195
v  9.9785 41.3988 -33.0233
v  6.7032 41.3988 -23.2821
v  3.5817 41.3988 -33.9022
v  14.5017 -0.0000 10.8085
v  14.5017 15.1022 10.8085
v  14.5017 66.0152 10.8085
v  15.5038 66.0152 20.6111
v  15.5038 41.3988 20.6111
v  15.5038 -0.0000 20.6111
v  0.0000 41.3988 -33.3268
v  9.3000 81.9628 -20.8298
v  3.4452 95.0720 -10.6686
v  6.7032 100.2004 -23.2821
v  3.4452 115.2908 -10.6686
v  0.0000 100.2004 -20.8406
v  8.3770 15.1022 -10.2560
v  8.3770 81.9628 -10.2560
v  8.3770 128.5964 -10.2560
v  10.6282 128.5964 0.0000
v  10.6282 15.1022 0.0000
v  -3.4452 95.0720 -10.6686
v  -9.3000 81.9628 -20.8298
v  -15.5038 66.0152 -20.6111
v  -14.5017 66.0152 -10.8085
v  -8.3770 81.9628 -10.2560
v  -8.3770 128.5964 -10.2560
v  5.1240 128.5964 0.0000
v  3.4452 128.5964 -10.6686
v  3.4452 147.7061 -10.6686
v  5.1240 147.7061 0.0000
v  -14.5017 -0.0000 10.8085
v  -16.0086 0.0000 -0.0000
v  -14.5017 0.0000 -10.8085
v  -15.5038 0.0000 -20.6111
v  -15.3606 0.0000 -31.8195
v  -3.5817 0.0000 -33.9022
v  0.0000 0.0000 -33.3268
v  3.5817 0.0000 -33.9022
v  15.3606 0.0000 -31.8195
v  15.3606 -0.0000 31.8195
v  -3.5817 -0.0000 33.9022
v  -6.7032 81.9628 -23.2821
v  -3.5817 41.3988 33.9022
v  8.3770 15.1022 10.2560
v  -9.3000 41.3988 -20.8298
v  -9.9785 41.3988 -33.0233
v  -15.3606 31.4817 -31.8195
v  -15.5038 41.3988 -20.6111
v  -6.7032 41.3988 -23.2821
v  -3.5817 41.3988 -33.9022
v  -15.5038 66.0152 20.6111
v  -6.7032 100.2004 -23.2821
v  -10.6282 128.5964 0.0000
v  3.4452 95.0720 10.6687
v  9.3000 81.9628 20.8298
v  8.3770 81.9628 10.2560
v  3.4452 128.5964 10.6687
v  8.3770 128.5964 10.2560
v  -5.1240 128.5964 0.0000
v  -5.1240 147.7061 0.0000
v  0.0000 81.9628 20.8406
v  0.0000 67.7487 29.7155
v  6.7032 81.9628 23.2821
v  3.4452 115.2908 10.6687
v  3.4452 147.7061 10.6687
v  0.0000 147.7061 7.0622
v  0.0000 115.2908 7.0622
v  -3.4452 115.2908 10.6687
v  -3.4452 147.7061 10.6687
v  -3.4452 128.5964 10.6687
v  9.3000 41.3988 20.8298
v  9.9785 41.3988 33.0233
v  15.3606 31.4817 31.8195
v  6.7032 41.3988 23.2821
v  6.7032 100.2004 23.2821
v  0.0000 100.2004 20.8406
v  -3.4452 95.0720 10.6687
v  -9.3000 81.9628 20.8298
v  -8.3770 128.5964 10.2560
v  -6.7032 81.9628 23.2821
v  -9.3000 41.3988 20.8298
v  -9.9785 41.3988 33.0233
v  -6.7032 41.3988 23.2821
v  -6.7032 100.2004 23.2821
# 118 vertices

vn -0.2223 0.7603 -0.6103
vn -0.0898 0.0000 -0.9960
vn -0.1586 -0.0000 0.9873
vn 0.7231 0.0000 -0.6907
vn -0.0000 1.0000 0.0000
vn 0.9948 -0.0000 0.1017
vn -0.9999 -0.0000 0.0128
vn 0.9904 0.0000 -0.1381
vn 0.4064 0.8956 -0.1809
vn 0.9948 0.0000 -0.1017
vn 0.9594 0.0000 -0.2820
vn 0.2641 0.3558 -0.8965
vn 0.6866 0.0000 -0.7270
vn 0.9682 -0.0000 0.2501
vn -0.3422 0.0000 -0.9396
vn 0.9767 0.0000 -0.2144
vn 0.3427 0.8665 -0.3629
vn -0.7920 0.6061 0.0731
vn 0.0352 0.0000 -0.9994
vn -0.0834 0.0000 -0.9965
vn -0.4499 0.7829 -0.4298
vn 0.9878 0.0000 -0.1555
vn -0.1971 0.8175 -0.5411
vn 0.0000 -1.0000 -0.0000
vn 0.0834 0.0000 -0.9965
vn 0.2223 0.7603 -0.6103
vn 0.1715 -0.0063 -0.9852
vn 0.1586 -0.0000 0.9873
vn 0.0000 1.0000 0.0000
vn 0.9999 0.0000 -0.0128
vn -0.9904 0.0000 -0.1381
vn -0.4064 0.8956 -0.1809
vn -0.9948 0.0000 -0.1017
vn -0.9594 0.0000 -0.2820
vn -0.2641 0.3558 -0.8965
vn -0.6866 0.0000 -0.7270
vn -0.9682 -0.0000 0.2501
vn 0.3422 0.0000 -0.9396
vn -0.9767 0.0000 -0.2144
vn -0.3427 0.8665 -0.3629
vn 0.7920 0.6061 -0.0731
vn -0.0352 0.0000 -0.9994
vn 0.4499 0.7829 -0.4298
vn -0.9999 0.0000 -0.0128
vn -0.9878 0.0000 -0.1555
vn 0.1971 0.8175 -0.5411
vn 0.7920 0.6061 0.0731
vn -0.2223 0.7603 0.6103
vn -0.7231 -0.0000 0.6907
vn -0.1715 -0.0063 -0.9852
vn 0.7231 -0.0000 0.6907
vn -0.0898 -0.0000 0.9960
vn 0.9904 -0.0000 0.1381
vn 0.4064 0.8956 0.1809
vn -0.9948 -0.0000 0.1017
vn 0.9594 -0.0000 0.2820
vn 0.2641 0.3558 0.8965
vn 0.6866 -0.0000 0.7270
vn 0.9682 0.0000 -0.2501
vn -0.3422 -0.0000 0.9396
vn 0.9767 -0.0000 0.2144
vn 0.3427 0.8665 0.3629
vn -0.7920 0.6061 -0.0731
vn 0.0352 -0.0000 0.9994
vn -0.4499 0.7829 0.4298
vn 0.9878 -0.0000 0.1555
vn -0.1971 0.8175 0.5411
vn 0.2223 0.7603 0.6103
vn 0.0898 0.0000 -0.9960
vn -0.7231 0.0000 -0.6907
vn 0.0898 -0.0000 0.9960
vn -0.1586 0.0000 -0.9873
vn 0.0834 -0.0000 0.9965
vn 0.9999 -0.0000 0.0128
vn -0.9904 -0.0000 0.1381
vn -0.4064 0.8956 0.1809
vn 0.1586 0.0000 -0.9873
vn -0.9594 -0.0000 0.2820
vn -0.2641 0.3558 0.8965
vn -0.6866 -0.0000 0.7270
vn -0.9682 0.0000 -0.2501
vn 0.3422 -0.0000 0.9396
vn -0.9767 -0.0000 0.2144
vn -0.3427 0.8665 0.3629
vn 0.1715 -0.0063 0.9852
vn -0.0352 -0.0000 0.9994
vn 0.4499 0.7829 0.4298
vn -0.1715 -0.0063 0.9852
vn -0.9878 -0.0000 0.1555
vn 0.1971 0.8175 0.5411
vn -0.0834 -0.0000 0.9965
# 91 vertex normals

vt 0.4900 0.4928 0.0000
vt 0.4779 0.4928 0.0000
vt 0.4900 0.4672 0.0000
vt 0.6923 0.7125 0.0000
vt 0.6923 0.5301 0.0000
vt 0.7361 0.4730 0.0000
vt 0.7361 0.7125 0.0000
vt 0.5164 0.3449 0.0000
vt 0.5164 0.4196 0.0000
vt 0.5100 0.4196 0.0000
vt 0.5100 0.3449 0.0000
vt 0.4962 0.5530 0.0000
vt 0.4962 0.5770 0.0000
vt 0.4962 0.6114 0.0000
vt 0.4900 0.6114 0.0000
vt 0.4900 0.5530 0.0000
vt 0.7799 0.7047 0.0000
vt 0.7907 0.6275 0.0000
vt 0.8343 0.6314 0.0000
vt 0.8182 0.7047 0.0000
vt 0.8343 0.7780 0.0000
vt 0.7907 0.7820 0.0000
vt 0.4856 0.3449 0.0000
vt 0.5033 0.3449 0.0000
vt 0.5033 0.4196 0.0000
vt 0.5033 0.4640 0.0000
vt 0.4856 0.4640 0.0000
vt 0.4856 0.3722 0.0000
vt 0.5711 0.3449 0.0000
vt 0.5913 0.3449 0.0000
vt 0.5913 0.4017 0.0000
vt 0.5711 0.4196 0.0000
vt 0.4661 0.3449 0.0000
vt 0.4661 0.3722 0.0000
vt 0.5037 0.4196 0.0000
vt 0.5236 0.4017 0.0000
vt 0.5257 0.4196 0.0000
vt 0.9217 0.0165 0.0000
vt 0.9412 0.0000 0.0000
vt 0.9412 0.0873 0.0000
vt 0.8953 0.0910 0.0000
vt 0.4466 0.3449 0.0000
vt 0.4466 0.3722 0.0000
vt 0.4466 0.4640 0.0000
vt 0.4289 0.4640 0.0000
vt 0.4289 0.4196 0.0000
vt 0.4289 0.3449 0.0000
vt 0.5081 0.4196 0.0000
vt 0.5273 0.4196 0.0000
vt 0.5081 0.4928 0.0000
vt 0.5263 0.4196 0.0000
vt 0.5198 0.4672 0.0000
vt 0.5037 0.4928 0.0000
vt 0.4854 0.5165 0.0000
vt 0.5081 0.5257 0.0000
vt 0.4854 0.5530 0.0000
vt 0.4900 0.5257 0.0000
vt 0.4779 0.5257 0.0000
vt 0.4846 0.3722 0.0000
vt 0.4846 0.4928 0.0000
vt 0.4846 0.5770 0.0000
vt 0.4661 0.5770 0.0000
vt 0.5146 0.5165 0.0000
vt 0.4963 0.4928 0.0000
vt 0.4967 0.4640 0.0000
vt 0.5144 0.4640 0.0000
vt 0.5154 0.4928 0.0000
vt 0.4621 0.4196 0.0000
vt 0.4732 0.4196 0.0000
vt 0.4732 0.4928 0.0000
vt 0.4621 0.4640 0.0000
vt 0.5051 0.4928 0.0000
vt 0.5051 0.5770 0.0000
vt 0.4962 0.5165 0.0000
vt 0.4838 0.5530 0.0000
vt 0.4854 0.5770 0.0000
vt 0.4854 0.6114 0.0000
vt 0.4661 0.6114 0.0000
vt 0.0046 0.4697 0.0000
vt 0.0036 0.3896 0.0000
vt 0.0107 0.3196 0.0000
vt 0.0000 0.2423 0.0000
vt 0.0107 0.1651 0.0000
vt 0.0036 0.0950 0.0000
vt 0.0046 0.0149 0.0000
vt 0.0885 0.0000 0.0000
vt 0.1140 0.0041 0.0000
vt 0.1395 0.0000 0.0000
vt 0.2235 0.0149 0.0000
vt 0.2245 0.0950 0.0000
vt 0.2173 0.1651 0.0000
vt 0.2281 0.2423 0.0000
vt 0.2173 0.3196 0.0000
vt 0.2245 0.3896 0.0000
vt 0.2235 0.4697 0.0000
vt 0.1395 0.4846 0.0000
vt 0.1140 0.4805 0.0000
vt 0.0885 0.4846 0.0000
vt 0.4749 0.4928 0.0000
vt 0.4838 0.5165 0.0000
vt 0.4838 0.5770 0.0000
vt 0.4749 0.5770 0.0000
vt 0.5021 0.4928 0.0000
vt 0.5236 0.3449 0.0000
vt 0.5273 0.3449 0.0000
vt 0.5035 0.3449 0.0000
vt 0.5035 0.4196 0.0000
vt 0.8182 0.5502 0.0000
vt 0.8343 0.6235 0.0000
vt 0.7799 0.5502 0.0000
vt 0.7907 0.4730 0.0000
vt 0.8343 0.4769 0.0000
vt 0.5339 0.3449 0.0000
vt 0.5339 0.3722 0.0000
vt 0.5144 0.3722 0.0000
vt 0.5144 0.3449 0.0000
vt 0.5068 0.4196 0.0000
vt 0.5080 0.4196 0.0000
vt 0.5177 0.4017 0.0000
vt 0.5180 0.4196 0.0000
vt 0.9160 0.4562 0.0000
vt 0.8896 0.3816 0.0000
vt 0.9354 0.3854 0.0000
vt 0.9354 0.4726 0.0000
vt 0.5534 0.3449 0.0000
vt 0.5711 0.4640 0.0000
vt 0.5534 0.4640 0.0000
vt 0.5534 0.3722 0.0000
vt 0.5021 0.4196 0.0000
vt 0.4965 0.4196 0.0000
vt 0.4900 0.4196 0.0000
vt 0.5068 0.4928 0.0000
vt 0.5146 0.5530 0.0000
vt 0.4919 0.5257 0.0000
vt 0.4919 0.4928 0.0000
vt 0.5021 0.5257 0.0000
vt 0.5092 0.3722 0.0000
vt 0.5092 0.5770 0.0000
vt 0.5051 0.3722 0.0000
vt 0.4469 0.5165 0.0000
vt 0.4286 0.4928 0.0000
vt 0.4476 0.4928 0.0000
vt 0.5180 0.4640 0.0000
vt 0.8392 0.0763 0.0000
vt 0.8511 0.1525 0.0000
vt 0.8160 0.1496 0.0000
vt 0.7999 0.0763 0.0000
vt 0.8160 0.0029 0.0000
vt 0.8511 0.0000 0.0000
vt 0.4967 0.3449 0.0000
vt 0.4967 0.4196 0.0000
vt 0.4764 0.4017 0.0000
vt 0.4764 0.3449 0.0000
vt 0.4993 0.5770 0.0000
vt 0.4993 0.6114 0.0000
vt 0.5100 0.4928 0.0000
vt 0.5100 0.4672 0.0000
vt 0.5221 0.4928 0.0000
vt 0.5162 0.5530 0.0000
vt 0.5162 0.5770 0.0000
vt 0.5162 0.6114 0.0000
vt 0.5100 0.6114 0.0000
vt 0.5100 0.5530 0.0000
vt 0.5177 0.3449 0.0000
vt 0.4965 0.3449 0.0000
vt 0.5038 0.5530 0.0000
vt 0.5038 0.6114 0.0000
vt 0.5038 0.5770 0.0000
vt 0.1704 0.7241 0.0000
vt 0.1704 0.4846 0.0000
vt 0.2142 0.5417 0.0000
vt 0.2142 0.7241 0.0000
vt 0.4286 0.4196 0.0000
vt 0.4065 0.4196 0.0000
vt 0.4087 0.4017 0.0000
vt 0.9160 0.3652 0.0000
vt 0.8896 0.2906 0.0000
vt 0.9354 0.2943 0.0000
vt 0.9354 0.3816 0.0000
vt 0.4241 0.4196 0.0000
vt 0.4241 0.4928 0.0000
vt 0.4050 0.4196 0.0000
vt 0.4125 0.4672 0.0000
vt 0.4060 0.4196 0.0000
vt 0.4469 0.5530 0.0000
vt 0.4241 0.5257 0.0000
vt 0.5221 0.5257 0.0000
vt 0.5100 0.5257 0.0000
vt 0.4476 0.5770 0.0000
vt 0.4476 0.3722 0.0000
vt 0.5531 0.5165 0.0000
vt 0.5524 0.4928 0.0000
vt 0.5714 0.4928 0.0000
vt 0.5379 0.4196 0.0000
vt 0.5379 0.4640 0.0000
vt 0.5268 0.4928 0.0000
vt 0.5268 0.4196 0.0000
vt 0.6923 0.7887 0.0000
vt 0.7083 0.7154 0.0000
vt 0.7435 0.7125 0.0000
vt 0.7315 0.7887 0.0000
vt 0.7435 0.8650 0.0000
vt 0.7083 0.8620 0.0000
vt 0.4469 0.6114 0.0000
vt 0.4469 0.5770 0.0000
vt 0.4979 0.4928 0.0000
vt 0.7999 0.0000 0.0000
vt 0.7999 0.2395 0.0000
vt 0.7561 0.1824 0.0000
vt 0.7561 0.0000 0.0000
vt 0.4838 0.6114 0.0000
vt 0.7799 0.4730 0.0000
vt 0.7799 0.6553 0.0000
vt 0.4836 0.3449 0.0000
vt 0.4900 0.3449 0.0000
vt 0.4836 0.4196 0.0000
vt 0.5251 0.4928 0.0000
vt 0.5251 0.5770 0.0000
vt 0.5162 0.5165 0.0000
vt 0.4087 0.3449 0.0000
vt 0.5714 0.4196 0.0000
vt 0.5935 0.4196 0.0000
vt 0.9205 0.1690 0.0000
vt 0.9399 0.1525 0.0000
vt 0.9399 0.2398 0.0000
vt 0.8941 0.2435 0.0000
vt 0.5759 0.4196 0.0000
vt 0.5950 0.4196 0.0000
vt 0.5759 0.4928 0.0000
vt 0.5940 0.4196 0.0000
vt 0.5875 0.4672 0.0000
vt 0.5759 0.5257 0.0000
vt 0.5531 0.5530 0.0000
vt 0.4979 0.5257 0.0000
vt 0.5524 0.3722 0.0000
vt 0.5524 0.5770 0.0000
vt 0.5339 0.5770 0.0000
vt 0.4050 0.3449 0.0000
vt 0.4820 0.4196 0.0000
vt 0.4932 0.4196 0.0000
vt 0.4932 0.4928 0.0000
vt 0.4820 0.4640 0.0000
vt 0.6773 0.3669 0.0000
vt 0.6893 0.2906 0.0000
vt 0.7138 0.3164 0.0000
vt 0.7383 0.2906 0.0000
vt 0.7503 0.3669 0.0000
vt 0.7383 0.4431 0.0000
vt 0.7138 0.4173 0.0000
vt 0.6893 0.4431 0.0000
vt 0.5950 0.3449 0.0000
vt 0.5531 0.5770 0.0000
vt 0.5531 0.6114 0.0000
vt 0.5339 0.6114 0.0000
vt 0.4949 0.4928 0.0000
vt 0.5038 0.5165 0.0000
vt 0.4949 0.5770 0.0000
# 257 texture coords

o b6
g b6
usemtl main_color_1
s off
f 1/1/1 2/2/1 3/3/1 
usemtl glass
f 4/4/2 5/5/2 6/6/2 
f 6/6/2 7/7/2 4/4/2 
f 8/8/3 9/9/3 10/10/3 
f 10/10/3 11/11/3 8/8/3 
f 12/12/4 13/13/4 14/14/4 
f 12/12/4 14/14/4 15/15/4 
f 12/12/4 15/15/4 16/16/4 
usemtl main_color_1
f 17/17/5 4/18/5 7/19/5 
f 17/17/5 7/19/5 18/20/5 
f 17/17/5 18/20/5 19/21/5 
f 17/17/5 19/21/5 20/22/5 
usemtl glass
f 21/23/6 22/24/6 23/25/6 
f 21/23/6 23/25/6 24/26/6 
f 21/23/6 24/26/6 25/27/6 
f 21/23/6 25/27/6 26/28/6 
f 27/29/7 28/30/7 29/31/7 
f 29/31/7 30/32/7 27/29/7 
f 31/33/8 21/23/8 26/28/8 
f 26/28/8 32/34/8 31/33/8 
usemtl main_color_1
f 33/35/9 23/25/9 34/36/9 
f 34/36/9 35/37/9 33/35/9 
f 36/38/5 33/39/5 35/40/5 
f 35/40/5 37/41/5 36/38/5 
usemtl glass
f 38/42/10 39/43/10 40/44/10 
f 38/42/10 40/44/10 41/45/10 
f 38/42/10 41/45/10 42/46/10 
f 38/42/10 42/46/10 43/47/10 
f 36/48/11 37/49/11 2/50/11 
usemtl accent_2
f 37/49/12 44/51/12 3/52/12 
f 3/52/12 2/50/12 37/49/12 
usemtl glass
f 33/35/13 36/48/13 2/50/13 
f 2/50/13 45/53/13 33/35/13 
f 46/54/14 2/50/14 47/55/14 
f 47/55/14 48/56/14 46/54/14 
f 2/2/15 1/1/15 49/57/15 
f 49/57/15 47/58/15 2/2/15 
f 50/59/16 51/60/16 52/61/16 
f 50/59/16 52/61/16 53/62/16 
f 50/59/16 53/62/16 54/34/16 
usemtl accent_2
f 46/54/17 45/53/17 2/50/17 
usemtl main_color_1
f 55/63/18 56/64/18 57/65/18 
f 55/63/18 57/65/18 58/66/18 
f 55/63/18 58/66/18 59/67/18 
usemtl glass
f 23/68/19 33/69/19 45/70/19 
f 45/70/19 24/71/19 23/68/19 
f 59/72/20 60/73/20 13/13/20 
f 59/72/20 13/13/20 12/12/20 
f 59/72/20 12/12/20 55/74/20 
usemtl accent_2
f 48/75/21 49/57/21 16/16/21 
usemtl glass
f 61/62/22 62/76/22 63/77/22 
f 63/77/22 64/78/22 61/62/22 
usemtl main_color_1
f 48/75/23 47/58/23 49/57/23 
usemtl glass
f 28/79/24 27/80/24 65/81/24 
f 65/81/24 66/82/24 67/83/24 
f 67/83/24 68/84/24 69/85/24 
f 69/85/24 70/86/24 71/87/24 
f 67/83/24 69/85/24 71/87/24 
f 71/87/24 72/88/24 73/89/24 
f 73/89/24 22/90/24 21/91/24 
f 71/87/24 73/89/24 21/91/24 
f 67/83/24 71/87/24 21/91/24 
f 21/91/24 31/92/24 38/93/24 
f 38/93/24 43/94/24 74/95/24 
f 74/95/24 8/96/24 11/97/24 
f 38/93/24 74/95/24 11/97/24 
f 21/91/24 38/93/24 11/97/24 
f 67/83/24 21/91/24 11/97/24 
f 65/81/24 67/83/24 11/97/24 
f 28/79/24 65/81/24 11/97/24 
f 75/98/24 28/79/24 11/97/24 
f 51/99/25 46/100/25 48/75/25 
f 51/99/25 48/75/25 62/101/25 
f 51/99/25 62/101/25 52/102/25 
usemtl main_color_1
f 1/1/26 3/3/26 76/103/26 
usemtl glass
f 73/104/27 72/105/27 37/49/27 
f 73/104/27 37/49/27 35/37/27 
f 73/104/27 35/37/27 34/36/27 
f 75/106/28 11/11/28 10/10/28 
f 10/10/28 77/107/28 75/106/28 
usemtl main_color_1
f 54/108/29 78/109/29 39/18/29 
f 54/108/29 39/18/29 32/110/29 
f 54/108/29 32/110/29 26/111/29 
f 54/108/29 26/111/29 50/112/29 
usemtl glass
f 22/24/30 73/104/30 34/36/30 
f 34/36/30 23/25/30 22/24/30 
f 66/113/31 17/114/31 20/115/31 
f 20/115/31 67/116/31 66/113/31 
usemtl main_color_1
f 79/117/32 80/118/32 81/119/32 
f 81/119/32 82/120/32 79/117/32 
f 83/121/29 84/122/29 80/123/29 
f 80/123/29 79/124/29 83/121/29 
usemtl glass
f 65/125/33 27/29/33 30/32/33 
f 65/125/33 30/32/33 85/126/33 
f 65/125/33 85/126/33 5/127/33 
f 65/125/33 5/127/33 4/128/33 
f 83/129/34 76/103/34 84/130/34 
usemtl accent_2
f 84/130/35 76/103/35 3/3/35 
f 3/3/35 44/131/35 84/130/35 
usemtl glass
f 79/117/36 56/132/36 76/103/36 
f 76/103/36 83/129/36 79/117/36 
f 55/63/37 12/133/37 86/134/37 
f 86/134/37 76/135/37 55/63/37 
f 76/103/38 86/136/38 49/57/38 
f 49/57/38 1/1/38 76/103/38 
f 18/137/39 87/138/39 60/73/39 
f 18/137/39 60/73/39 59/72/39 
f 18/137/39 59/72/39 19/139/39 
usemtl accent_2
f 55/74/40 76/103/40 56/132/40 
usemtl main_color_1
f 88/140/41 89/141/41 41/45/41 
f 88/140/41 41/45/41 40/44/41 
f 88/140/41 40/44/41 90/142/41 
usemtl glass
f 82/120/42 57/143/42 56/132/42 
f 56/132/42 79/117/42 82/120/42 
usemtl main_color_1
f 61/144/29 91/145/29 92/146/29 
f 61/144/29 92/146/29 53/147/29 
f 61/144/29 53/147/29 52/148/29 
f 61/144/29 52/148/29 62/149/29 
usemtl accent_2
f 12/12/43 16/16/43 49/57/43 
usemtl glass
f 68/150/44 82/151/44 81/152/44 
f 81/152/44 69/153/44 68/150/44 
f 93/154/45 94/155/45 14/14/45 
f 14/14/45 13/13/45 93/154/45 
usemtl main_color_1
f 12/12/46 49/57/46 86/136/46 
f 46/54/47 51/60/47 25/27/47 
f 46/54/47 25/27/47 24/26/47 
f 46/54/47 24/26/47 45/53/47 
f 95/156/48 96/157/48 97/158/48 
usemtl glass
f 98/159/49 91/160/49 99/161/49 
f 98/159/49 99/161/49 100/162/49 
f 98/159/49 100/162/49 101/163/49 
f 69/164/50 81/119/50 80/118/50 
f 69/164/50 80/118/50 84/130/50 
f 69/164/50 84/130/50 70/165/50 
f 102/166/51 101/163/51 100/162/51 
f 102/166/51 100/162/51 103/167/51 
f 102/166/51 103/167/51 104/168/51 
f 19/169/52 59/170/52 58/171/52 
f 58/171/52 20/172/52 19/169/52 
f 31/33/53 32/34/53 39/43/53 
f 39/43/53 38/42/53 31/33/53 
usemtl main_color_1
f 105/173/54 106/174/54 107/175/54 
f 107/175/54 42/46/54 105/173/54 
f 108/176/29 9/177/29 106/178/29 
f 106/178/29 105/179/29 108/176/29 
usemtl glass
f 67/116/55 20/115/55 58/66/55 
f 67/116/55 58/66/55 57/65/55 
f 67/116/55 57/65/55 82/151/55 
f 67/116/55 82/151/55 68/150/55 
f 108/180/56 97/181/56 9/182/56 
usemtl accent_2
f 9/182/57 97/181/57 96/183/57 
f 96/183/57 10/184/57 9/182/57 
usemtl glass
f 105/173/58 89/141/58 97/181/58 
f 97/181/58 108/180/58 105/173/58 
f 88/140/59 98/185/59 109/186/59 
f 109/186/59 97/181/59 88/140/59 
f 97/158/60 109/187/60 110/188/60 
f 110/188/60 95/156/60 97/158/60 
f 54/34/61 53/62/61 92/189/61 
f 54/34/61 92/189/61 90/142/61 
f 54/34/61 90/142/61 78/190/61 
usemtl accent_2
f 88/140/62 97/181/62 89/141/62 
usemtl main_color_1
f 111/191/63 6/192/63 5/127/63 
f 111/191/63 5/127/63 85/126/63 
f 111/191/63 85/126/63 112/193/63 
usemtl glass
f 42/194/64 41/195/64 89/196/64 
f 89/196/64 105/197/64 42/194/64 
usemtl main_color_1
f 87/198/5 113/199/5 104/200/5 
f 87/198/5 104/200/5 93/201/5 
f 87/198/5 93/201/5 13/202/5 
f 87/198/5 13/202/5 60/203/5 
usemtl accent_2
f 98/159/65 101/163/65 110/188/65 
usemtl glass
f 61/62/66 64/78/66 99/204/66 
f 99/204/66 91/205/66 61/62/66 
usemtl main_color_1
f 98/159/67 110/188/67 109/187/67 
f 95/156/68 114/206/68 96/157/68 
usemtl glass
f 78/207/69 90/208/69 40/209/69 
f 40/209/69 39/210/69 78/207/69 
f 48/75/70 16/16/70 15/15/70 
f 48/75/70 15/15/70 63/211/70 
f 48/75/70 63/211/70 62/101/70 
f 26/212/71 25/213/71 51/7/71 
f 51/7/71 50/6/71 26/212/71 
f 72/214/72 71/215/72 44/131/72 
f 44/131/72 37/216/72 72/214/72 
f 90/217/73 92/218/73 91/160/73 
f 90/217/73 91/160/73 98/159/73 
f 90/217/73 98/159/73 88/219/73 
f 43/47/74 42/46/74 107/175/74 
f 107/175/74 74/220/74 43/47/74 
f 66/113/75 65/125/75 4/128/75 
f 4/128/75 17/114/75 66/113/75 
usemtl main_color_1
f 115/221/76 30/32/76 29/31/76 
f 29/31/76 116/222/76 115/221/76 
f 117/223/29 115/224/29 116/225/29 
f 116/225/29 77/226/29 117/223/29 
usemtl glass
f 70/165/77 84/130/77 44/131/77 
f 44/131/77 71/215/77 70/165/77 
f 117/227/78 77/228/78 114/229/78 
usemtl accent_2
f 77/228/79 10/230/79 96/231/79 
f 96/231/79 114/229/79 77/228/79 
usemtl glass
f 115/221/80 117/227/80 114/229/80 
f 114/229/80 112/193/80 115/221/80 
f 111/191/81 114/229/81 118/232/81 
f 118/232/81 102/233/81 111/191/81 
f 114/206/82 95/156/82 110/188/82 
f 110/188/82 118/234/82 114/206/82 
f 7/235/83 6/192/83 113/236/83 
f 7/235/83 113/236/83 87/237/83 
f 7/235/83 87/237/83 18/114/83 
usemtl accent_2
f 111/191/84 112/193/84 114/229/84 
usemtl glass
f 74/220/85 107/175/85 106/174/85 
f 74/220/85 106/174/85 9/182/85 
f 74/220/85 9/182/85 8/238/85 
f 30/239/86 115/240/86 112/241/86 
f 112/241/86 85/242/86 30/239/86 
usemtl accent_2
f 102/166/87 110/188/87 101/163/87 
usemtl main_color_1
f 94/243/29 103/244/29 100/245/29 
f 100/245/29 99/246/29 64/247/29 
f 64/247/29 63/248/29 15/249/29 
f 100/245/29 64/247/29 15/249/29 
f 94/243/29 100/245/29 15/249/29 
f 94/243/29 15/249/29 14/250/29 
usemtl glass
f 28/30/88 75/251/88 77/228/88 
f 28/30/88 77/228/88 116/222/88 
f 28/30/88 116/222/88 29/31/88 
f 93/237/89 104/252/89 103/253/89 
f 103/253/89 94/254/89 93/237/89 
usemtl main_color_1
f 102/166/90 118/234/90 110/188/90 
usemtl glass
f 6/255/91 111/256/91 102/166/91 
f 6/255/91 102/166/91 104/168/91 
f 6/255/91 104/168/91 113/257/91 
# 232 faces

